<svg width="1149" height="525" viewBox="0 0 1149 525" fill="none" xmlns="http://www.w3.org/2000/svg">
<path d="M207.873 340.606C207.873 345.893 206.065 350.485 202.447 354.381C198.829 357.999 194.237 359.808 188.672 359.808C183.384 359.808 178.792 357.999 174.896 354.381C171.279 350.485 169.47 345.893 169.47 340.606V173.634C169.47 167.233 167.244 161.946 162.791 157.772C158.617 153.319 153.329 151.093 146.929 151.093C140.806 151.093 135.519 153.319 131.066 157.772C126.614 162.224 124.387 167.512 124.387 173.634V340.606C124.387 345.893 122.579 350.485 118.961 354.381C115.343 357.999 110.751 359.808 105.186 359.808C99.8982 359.808 95.3065 357.999 91.4105 354.381C87.7927 350.485 85.9839 345.893 85.9839 340.606V173.634C85.9839 167.233 83.7576 161.946 79.305 157.772C75.1307 153.319 69.8432 151.093 63.4426 151.093C57.3203 151.093 52.0329 153.319 47.5803 157.772C43.1277 162.224 40.9014 167.512 40.9014 173.634V340.606C40.9014 345.893 39.0925 350.485 35.4748 354.381C31.8571 357.999 27.2654 359.808 21.6996 359.808C16.4122 359.808 11.8205 357.999 7.92444 354.381C4.30671 350.485 2.49785 345.893 2.49785 340.606V173.634C2.49785 168.347 4.30671 163.894 7.92444 160.276C11.8205 156.38 16.4122 154.432 21.6996 154.432C27.8219 154.432 33.1094 152.206 37.562 147.753C42.0146 143.301 44.2409 138.013 44.2409 131.891C44.2409 126.604 46.0497 122.151 49.6674 118.533C53.5635 114.637 58.1552 112.689 63.4426 112.689C69.0084 112.689 73.6001 114.498 77.2178 118.116C80.8356 121.734 82.6444 126.325 82.6444 131.891C82.6444 138.013 84.8707 143.301 89.3233 147.753C93.7759 152.206 99.0633 154.432 105.186 154.432C111.308 154.432 116.595 152.206 121.048 147.753C125.501 143.301 127.727 138.013 127.727 131.891C127.727 126.604 129.536 122.151 133.153 118.533C137.049 114.637 141.641 112.689 146.929 112.689C152.494 112.689 157.086 114.498 160.704 118.116C164.322 121.734 166.13 126.325 166.13 131.891C166.13 138.013 168.357 143.301 172.809 147.753C177.262 152.206 182.549 154.432 188.672 154.432C194.237 154.432 198.829 156.241 202.447 159.859C206.065 163.477 207.873 168.068 207.873 173.634V340.606ZM252.834 257.12C252.834 251.833 254.642 247.38 258.26 243.762C262.156 239.866 266.748 237.918 272.035 237.918H313.778C319.344 237.918 323.936 239.727 327.554 243.345C331.171 246.963 332.98 251.554 332.98 257.12C332.98 262.407 331.171 266.999 327.554 270.895C323.936 274.513 319.344 276.322 313.778 276.322H272.035C265.913 276.322 260.626 278.548 256.173 283.001C251.72 287.453 249.494 292.741 249.494 298.863C249.494 304.985 251.72 310.273 256.173 314.725C260.626 319.178 265.913 321.404 272.035 321.404H313.778C319.901 321.404 325.188 319.178 329.641 314.725C334.093 310.273 336.32 304.985 336.32 298.863V215.377C336.32 208.976 334.093 203.689 329.641 199.515C325.466 195.062 320.179 192.836 313.778 192.836H272.035C265.913 192.836 260.626 195.062 256.173 199.515C251.72 203.967 249.494 209.255 249.494 215.377C249.494 220.664 247.685 225.256 244.068 229.152C240.45 232.77 235.858 234.579 230.292 234.579C225.005 234.579 220.413 232.77 216.517 229.152C212.899 225.256 211.091 220.664 211.091 215.377C211.091 210.09 212.899 205.637 216.517 202.019C220.413 198.123 225.005 196.175 230.292 196.175C236.693 196.175 241.98 193.949 246.155 189.496C250.607 185.044 252.834 179.756 252.834 173.634C252.834 168.347 254.642 163.894 258.26 160.276C262.156 156.38 266.748 154.432 272.035 154.432H313.778C319.344 154.432 323.936 156.241 327.554 159.859C331.171 163.477 332.98 168.068 332.98 173.634C332.98 179.756 335.206 185.044 339.659 189.496C344.112 193.949 349.399 196.175 355.521 196.175C361.087 196.175 365.679 197.984 369.297 201.602C372.914 205.22 374.723 209.811 374.723 215.377V298.863C374.723 304.15 372.775 308.742 368.879 312.638C365.261 316.256 360.809 318.065 355.521 318.065C349.399 318.065 344.112 320.291 339.659 324.744C335.206 328.918 332.98 334.205 332.98 340.606C332.98 345.893 331.032 350.485 327.136 354.381C323.518 357.999 319.066 359.808 313.778 359.808H272.035C266.748 359.808 262.156 357.999 258.26 354.381C254.642 350.485 252.834 345.893 252.834 340.606C252.834 334.205 250.607 328.918 246.155 324.744C241.98 320.291 236.693 318.065 230.292 318.065C225.005 318.065 220.413 316.256 216.517 312.638C212.899 308.742 211.091 304.15 211.091 298.863C211.091 293.576 212.899 289.123 216.517 285.505C220.413 281.609 225.005 279.661 230.292 279.661C236.415 279.661 241.702 277.435 246.155 272.982C250.607 268.53 252.834 263.242 252.834 257.12ZM438.967 279.661C444.532 279.661 449.124 281.47 452.742 285.088C456.36 288.706 458.168 293.297 458.168 298.863C458.168 304.985 460.395 310.273 464.847 314.725C469.3 319.178 474.587 321.404 480.71 321.404C486.832 321.404 492.119 319.178 496.572 314.725C501.025 310.273 503.251 304.985 503.251 298.863V215.377C503.251 208.976 501.025 203.689 496.572 199.515C492.398 195.062 487.11 192.836 480.71 192.836H438.967C432.844 192.836 427.557 195.062 423.104 199.515C418.652 203.967 416.425 209.255 416.425 215.377V382.349C416.425 387.915 414.617 392.507 410.999 396.124C407.381 399.742 402.789 401.551 397.224 401.551C391.936 401.551 387.344 399.603 383.448 395.707C379.831 392.089 378.022 387.636 378.022 382.349V215.377C378.022 210.09 379.831 205.637 383.448 202.019C387.344 198.123 391.936 196.175 397.224 196.175C403.624 196.175 408.912 193.949 413.086 189.496C417.539 185.044 419.765 179.756 419.765 173.634C419.765 168.347 421.574 163.894 425.191 160.276C429.087 156.38 433.679 154.432 438.967 154.432H480.71C486.275 154.432 490.867 156.241 494.485 159.859C498.103 163.477 499.911 168.068 499.911 173.634C499.911 179.756 502.138 185.044 506.59 189.496C511.043 193.949 516.33 196.175 522.453 196.175C528.018 196.175 532.61 197.984 536.228 201.602C539.846 205.22 541.654 209.811 541.654 215.377V298.863C541.654 304.15 539.706 308.742 535.81 312.638C532.193 316.256 527.74 318.065 522.453 318.065C516.33 318.065 511.043 320.291 506.59 324.744C502.138 328.918 499.911 334.205 499.911 340.606C499.911 345.893 497.963 350.485 494.067 354.381C490.45 357.999 485.997 359.808 480.71 359.808C475.422 359.808 470.83 357.999 466.934 354.381C463.317 350.485 461.508 345.893 461.508 340.606C461.508 334.205 459.282 328.918 454.829 324.744C450.655 320.291 445.367 318.065 438.967 318.065C433.679 318.065 429.087 316.256 425.191 312.638C421.574 308.742 419.765 304.15 419.765 298.863C419.765 293.576 421.574 289.123 425.191 285.505C429.087 281.609 433.679 279.661 438.967 279.661ZM605.898 279.661C611.464 279.661 616.055 281.47 619.673 285.088C623.291 288.706 625.1 293.297 625.1 298.863C625.1 304.985 627.326 310.273 631.779 314.725C636.231 319.178 641.519 321.404 647.641 321.404C653.763 321.404 659.051 319.178 663.503 314.725C667.956 310.273 670.182 304.985 670.182 298.863V215.377C670.182 208.976 667.956 203.689 663.503 199.515C659.329 195.062 654.041 192.836 647.641 192.836H605.898C599.776 192.836 594.488 195.062 590.036 199.515C585.583 203.967 583.357 209.255 583.357 215.377V382.349C583.357 387.915 581.548 392.507 577.93 396.124C574.312 399.742 569.721 401.551 564.155 401.551C558.867 401.551 554.276 399.603 550.38 395.707C546.762 392.089 544.953 387.636 544.953 382.349V215.377C544.953 210.09 546.762 205.637 550.38 202.019C554.276 198.123 558.867 196.175 564.155 196.175C570.555 196.175 575.843 193.949 580.017 189.496C584.47 185.044 586.696 179.756 586.696 173.634C586.696 168.347 588.505 163.894 592.123 160.276C596.019 156.38 600.61 154.432 605.898 154.432H647.641C653.207 154.432 657.798 156.241 661.416 159.859C665.034 163.477 666.843 168.068 666.843 173.634C666.843 179.756 669.069 185.044 673.522 189.496C677.974 193.949 683.262 196.175 689.384 196.175C694.95 196.175 699.541 197.984 703.159 201.602C706.777 205.22 708.586 209.811 708.586 215.377V298.863C708.586 304.15 706.638 308.742 702.742 312.638C699.124 316.256 694.671 318.065 689.384 318.065C683.262 318.065 677.974 320.291 673.522 324.744C669.069 328.918 666.843 334.205 666.843 340.606C666.843 345.893 664.895 350.485 660.999 354.381C657.381 357.999 652.928 359.808 647.641 359.808C642.353 359.808 637.762 357.999 633.866 354.381C630.248 350.485 628.439 345.893 628.439 340.606C628.439 334.205 626.213 328.918 621.76 324.744C617.586 320.291 612.298 318.065 605.898 318.065C600.61 318.065 596.019 316.256 592.123 312.638C588.505 308.742 586.696 304.15 586.696 298.863C586.696 293.576 588.505 289.123 592.123 285.505C596.019 281.609 600.61 279.661 605.898 279.661ZM833.774 257.12C833.774 262.407 831.965 266.999 828.347 270.895C824.73 274.513 820.138 276.322 814.572 276.322H772.829C767.542 276.322 762.95 274.513 759.054 270.895C755.436 266.999 753.627 262.407 753.627 257.12C753.627 251.833 755.436 247.38 759.054 243.762C762.95 239.866 767.542 237.918 772.829 237.918H814.572C820.973 237.918 826.26 235.692 830.435 231.239C834.887 226.787 837.113 221.499 837.113 215.377C837.113 208.976 834.887 203.689 830.435 199.515C826.26 195.062 820.973 192.836 814.572 192.836H772.829C766.707 192.836 761.419 195.062 756.967 199.515C752.514 203.967 750.288 209.255 750.288 215.377V298.863C750.288 304.985 752.514 310.273 756.967 314.725C761.419 319.178 766.707 321.404 772.829 321.404H814.572C820.694 321.404 825.982 319.178 830.435 314.725C834.887 310.273 837.113 304.985 837.113 298.863C837.113 293.576 838.922 289.123 842.54 285.505C846.436 281.609 851.028 279.661 856.315 279.661C861.881 279.661 866.473 281.47 870.09 285.088C873.708 288.706 875.517 293.297 875.517 298.863C875.517 304.15 873.569 308.742 869.673 312.638C866.055 316.256 861.603 318.065 856.315 318.065C850.193 318.065 844.905 320.291 840.453 324.744C836 329.196 833.774 334.484 833.774 340.606C833.774 345.893 831.826 350.485 827.93 354.381C824.312 357.999 819.86 359.808 814.572 359.808H772.829C767.542 359.808 762.95 357.999 759.054 354.381C755.436 350.485 753.627 345.893 753.627 340.606C753.627 334.205 751.401 328.918 746.949 324.744C742.774 320.291 737.487 318.065 731.086 318.065C725.799 318.065 721.207 316.256 717.311 312.638C713.693 308.742 711.884 304.15 711.884 298.863V215.377C711.884 210.09 713.693 205.637 717.311 202.019C721.207 198.123 725.799 196.175 731.086 196.175C737.487 196.175 742.774 193.949 746.949 189.496C751.401 185.044 753.627 179.756 753.627 173.634C753.627 168.347 755.436 163.894 759.054 160.276C762.95 156.38 767.542 154.432 772.829 154.432H814.572C820.138 154.432 824.73 156.241 828.347 159.859C831.965 163.477 833.774 168.068 833.774 173.634C833.774 179.756 836 185.044 840.453 189.496C844.905 193.949 850.193 196.175 856.315 196.175C861.881 196.175 866.473 197.984 870.09 201.602C873.708 205.22 875.517 209.811 875.517 215.377C875.517 220.664 873.708 225.256 870.09 229.152C866.473 232.77 861.881 234.579 856.315 234.579C850.193 234.579 844.905 236.805 840.453 241.258C836 245.71 833.774 250.998 833.774 257.12ZM981.503 234.579C976.216 234.579 971.624 232.77 967.728 229.152C964.11 225.256 962.302 220.664 962.302 215.377C962.302 208.976 960.075 203.689 955.623 199.515C951.448 195.062 946.161 192.836 939.76 192.836C933.638 192.836 928.351 195.062 923.898 199.515C919.445 203.967 917.219 209.255 917.219 215.377V298.863C917.219 304.985 919.445 310.273 923.898 314.725C928.351 319.178 933.638 321.404 939.76 321.404H981.503C987.626 321.404 992.913 319.178 997.366 314.725C1001.82 310.273 1004.04 304.985 1004.04 298.863V131.891C1004.04 126.604 1005.85 122.151 1009.47 118.533C1013.37 114.637 1017.96 112.689 1023.25 112.689C1028.81 112.689 1033.4 114.498 1037.02 118.116C1040.64 121.734 1042.45 126.325 1042.45 131.891V298.863C1042.45 304.15 1040.5 308.742 1036.6 312.638C1032.99 316.256 1028.53 318.065 1023.25 318.065C1017.12 318.065 1011.84 320.291 1007.38 324.744C1002.93 329.196 1000.71 334.484 1000.71 340.606C1000.71 345.893 998.757 350.485 994.861 354.381C991.243 357.999 986.791 359.808 981.503 359.808H939.76C934.473 359.808 929.881 357.999 925.985 354.381C922.367 350.485 920.559 345.893 920.559 340.606C920.559 334.205 918.332 328.918 913.88 324.744C909.705 320.291 904.418 318.065 898.017 318.065C892.73 318.065 888.138 316.256 884.242 312.638C880.624 308.742 878.816 304.15 878.816 298.863V215.377C878.816 210.09 880.624 205.637 884.242 202.019C888.138 198.123 892.73 196.175 898.017 196.175C904.418 196.175 909.705 193.949 913.88 189.496C918.332 185.044 920.559 179.756 920.559 173.634C920.559 168.347 922.367 163.894 925.985 160.276C929.881 156.38 934.473 154.432 939.76 154.432C945.326 154.432 949.918 156.241 953.536 159.859C957.153 163.477 958.962 168.068 958.962 173.634C958.962 179.756 961.188 185.044 965.641 189.496C970.094 193.949 975.381 196.175 981.503 196.175C987.069 196.175 991.661 197.984 995.279 201.602C998.896 205.22 1000.71 209.811 1000.71 215.377C1000.71 220.664 998.896 225.256 995.279 229.152C991.661 232.77 987.069 234.579 981.503 234.579Z" fill="#383838"/>
<circle cx="438.57" cy="339.61" r="16.865" fill="#678DE3"/>
<circle cx="563.006" cy="172.61" r="16.865" fill="#678DE3"/>
<circle cx="229.849" cy="172.816" r="16.865" fill="#78D063"/>
<circle cx="856.343" cy="257.687" r="16.865" fill="#678DE3"/>
<circle cx="1023.08" cy="340.612" r="16.865" fill="#FF6B6B"/>
<path d="M681.269 8.97695V5.88295H681.157L679.099 10.909L677.041 5.88295H676.929V8.97695V13.877H675.851V4.10495H677.363L679.085 8.41695H679.169L680.891 4.10495H682.347V13.877H681.269V8.97695ZM685.674 13.877V4.10495H691.694V5.12695H686.85V8.41695H691.526V9.43895H686.85V12.855H691.694V13.877H685.674ZM700.298 8.97695V5.88295H700.186L698.128 10.909L696.07 5.88295H695.958V8.97695V13.877H694.88V4.10495H696.392L698.114 8.41695H698.198L699.92 4.10495H701.376V13.877H700.298V8.97695ZM704.675 4.10495H707.993C708.833 4.10495 709.491 4.33362 709.967 4.79095C710.443 5.24829 710.681 5.85962 710.681 6.62495C710.681 7.21295 710.536 7.67495 710.247 8.01095C709.967 8.34695 709.603 8.58495 709.155 8.72495V8.76695C709.706 8.89762 710.158 9.14495 710.513 9.50895C710.868 9.86362 711.045 10.3816 711.045 11.063C711.045 11.455 710.98 11.8236 710.849 12.169C710.718 12.5143 710.532 12.813 710.289 13.065C710.056 13.317 709.776 13.5176 709.449 13.667C709.132 13.807 708.786 13.877 708.413 13.877H704.675V4.10495ZM708.063 12.855C708.604 12.855 709.029 12.7336 709.337 12.491C709.645 12.2483 709.799 11.875 709.799 11.371V10.797C709.799 10.3023 709.645 9.93362 709.337 9.69095C709.029 9.43895 708.604 9.31295 708.063 9.31295H705.851V12.855H708.063ZM707.867 8.34695C708.362 8.34695 708.749 8.23962 709.029 8.02495C709.309 7.80095 709.449 7.46495 709.449 7.01695V6.47095C709.449 6.02295 709.309 5.68695 709.029 5.46295C708.749 5.23895 708.362 5.12695 707.867 5.12695H705.851V8.34695H707.867ZM714.218 13.877V4.10495H720.238V5.12695H715.394V8.41695H720.07V9.43895H715.394V12.855H720.238V13.877H714.218ZM724.908 13.877H723.732V4.10495H727.288C728.193 4.10495 728.884 4.35229 729.36 4.84695C729.836 5.34162 730.074 6.03229 730.074 6.91895C730.074 7.71229 729.869 8.34695 729.458 8.82295C729.047 9.29895 728.45 9.57429 727.666 9.64895L730.158 13.877H728.842L726.462 9.70495H724.908V13.877ZM727.26 8.71095C727.755 8.71095 728.137 8.58962 728.408 8.34695C728.688 8.09495 728.828 7.74029 728.828 7.28295V6.55495C728.828 6.09762 728.688 5.74762 728.408 5.50495C728.137 5.25295 727.755 5.12695 727.26 5.12695H724.908V8.71095H727.26Z" fill="#678DE3"/>
<path d="M1075.59 522.214V512.442H1076.77V521.192H1081.4V522.214H1075.59ZM1087.62 522.382C1087.03 522.382 1086.51 522.27 1086.08 522.046C1085.66 521.813 1085.3 521.481 1085.02 521.052C1084.74 520.623 1084.54 520.095 1084.4 519.47C1084.27 518.845 1084.21 518.131 1084.21 517.328C1084.21 516.535 1084.27 515.825 1084.4 515.2C1084.54 514.565 1084.74 514.033 1085.02 513.604C1085.3 513.175 1085.66 512.848 1086.08 512.624C1086.51 512.391 1087.03 512.274 1087.62 512.274C1088.22 512.274 1088.74 512.391 1089.16 512.624C1089.59 512.848 1089.95 513.175 1090.23 513.604C1090.51 514.033 1090.71 514.565 1090.84 515.2C1090.98 515.825 1091.04 516.535 1091.04 517.328C1091.04 518.131 1090.98 518.845 1090.84 519.47C1090.71 520.095 1090.51 520.623 1090.23 521.052C1089.95 521.481 1089.59 521.813 1089.16 522.046C1088.74 522.27 1088.22 522.382 1087.62 522.382ZM1087.62 521.36C1088.02 521.36 1088.35 521.285 1088.62 521.136C1088.89 520.977 1089.11 520.758 1089.29 520.478C1089.47 520.198 1089.59 519.862 1089.67 519.47C1089.75 519.069 1089.79 518.621 1089.79 518.126V516.53C1089.79 516.045 1089.75 515.601 1089.67 515.2C1089.59 514.799 1089.47 514.458 1089.29 514.178C1089.11 513.898 1088.89 513.683 1088.62 513.534C1088.35 513.375 1088.02 513.296 1087.62 513.296C1087.23 513.296 1086.9 513.375 1086.63 513.534C1086.36 513.683 1086.14 513.898 1085.96 514.178C1085.78 514.458 1085.65 514.799 1085.57 515.2C1085.49 515.601 1085.45 516.045 1085.45 516.53V518.126C1085.45 518.621 1085.49 519.069 1085.57 519.47C1085.65 519.862 1085.78 520.198 1085.96 520.478C1086.14 520.758 1086.36 520.977 1086.63 521.136C1086.9 521.285 1087.23 521.36 1087.62 521.36ZM1097.46 522.382C1096.27 522.382 1095.38 521.948 1094.79 521.08C1094.21 520.212 1093.92 518.961 1093.92 517.328C1093.92 515.695 1094.21 514.444 1094.79 513.576C1095.38 512.708 1096.27 512.274 1097.46 512.274C1097.91 512.274 1098.3 512.335 1098.62 512.456C1098.95 512.577 1099.23 512.741 1099.46 512.946C1099.7 513.151 1099.89 513.385 1100.05 513.646C1100.21 513.898 1100.35 514.155 1100.47 514.416L1099.46 514.878C1099.38 514.663 1099.28 514.463 1099.17 514.276C1099.06 514.08 1098.92 513.912 1098.76 513.772C1098.61 513.623 1098.43 513.506 1098.22 513.422C1098.01 513.338 1097.76 513.296 1097.46 513.296C1096.69 513.296 1096.11 513.59 1095.73 514.178C1095.35 514.766 1095.17 515.55 1095.17 516.53V518.126C1095.17 519.106 1095.35 519.89 1095.73 520.478C1096.11 521.066 1096.69 521.36 1097.46 521.36C1097.76 521.36 1098.01 521.318 1098.22 521.234C1098.43 521.15 1098.61 521.038 1098.76 520.898C1098.92 520.749 1099.06 520.581 1099.17 520.394C1099.28 520.198 1099.38 519.993 1099.46 519.778L1100.47 520.24C1100.35 520.511 1100.21 520.772 1100.05 521.024C1099.89 521.276 1099.7 521.505 1099.46 521.71C1099.23 521.915 1098.95 522.079 1098.62 522.2C1098.3 522.321 1097.91 522.382 1097.46 522.382ZM1109.19 522.214L1108.36 519.428H1104.93L1104.11 522.214H1102.89L1105.88 512.442H1107.44L1110.43 522.214H1109.19ZM1106.71 513.688H1106.58L1105.21 518.406H1108.08L1106.71 513.688ZM1116.76 513.464V522.214H1115.58V513.464H1112.32V512.442H1120.02V513.464H1116.76ZM1122.66 522.214V521.276H1125.09V513.38H1122.66V512.442H1128.71V513.38H1126.27V521.276H1128.71V522.214H1122.66ZM1135.2 522.382C1134.6 522.382 1134.09 522.27 1133.66 522.046C1133.23 521.813 1132.87 521.481 1132.59 521.052C1132.31 520.623 1132.11 520.095 1131.98 519.47C1131.85 518.845 1131.78 518.131 1131.78 517.328C1131.78 516.535 1131.85 515.825 1131.98 515.2C1132.11 514.565 1132.31 514.033 1132.59 513.604C1132.87 513.175 1133.23 512.848 1133.66 512.624C1134.09 512.391 1134.6 512.274 1135.2 512.274C1135.79 512.274 1136.31 512.391 1136.74 512.624C1137.17 512.848 1137.52 513.175 1137.8 513.604C1138.08 514.033 1138.29 514.565 1138.42 515.2C1138.55 515.825 1138.61 516.535 1138.61 517.328C1138.61 518.131 1138.55 518.845 1138.42 519.47C1138.29 520.095 1138.08 520.623 1137.8 521.052C1137.52 521.481 1137.17 521.813 1136.74 522.046C1136.31 522.27 1135.79 522.382 1135.2 522.382ZM1135.2 521.36C1135.59 521.36 1135.92 521.285 1136.19 521.136C1136.46 520.977 1136.69 520.758 1136.86 520.478C1137.04 520.198 1137.17 519.862 1137.24 519.47C1137.33 519.069 1137.37 518.621 1137.37 518.126V516.53C1137.37 516.045 1137.33 515.601 1137.24 515.2C1137.17 514.799 1137.04 514.458 1136.86 514.178C1136.69 513.898 1136.46 513.683 1136.19 513.534C1135.92 513.375 1135.59 513.296 1135.2 513.296C1134.81 513.296 1134.47 513.375 1134.2 513.534C1133.93 513.683 1133.71 513.898 1133.53 514.178C1133.35 514.458 1133.22 514.799 1133.14 515.2C1133.06 515.601 1133.03 516.045 1133.03 516.53V518.126C1133.03 518.621 1133.06 519.069 1133.14 519.47C1133.22 519.862 1133.35 520.198 1133.53 520.478C1133.71 520.758 1133.93 520.977 1134.2 521.136C1134.47 521.285 1134.81 521.36 1135.2 521.36ZM1142.79 513.982H1142.7V522.214H1141.63V512.442H1143.3L1146.63 520.674H1146.73V512.442H1147.79V522.214H1146.13L1142.79 513.982Z" fill="#FF6B6B"/>
<path d="M33.788 46.7236V55.4736H32.612V46.7236H29.35V45.7016H37.05V46.7236H33.788ZM40.8105 45.7016V51.5676C40.8105 52.0436 40.8245 52.4683 40.8525 52.8416C40.8805 53.215 40.9552 53.537 41.0765 53.8076C41.1979 54.069 41.3845 54.2696 41.6365 54.4096C41.8979 54.5496 42.2572 54.6196 42.7145 54.6196C43.1719 54.6196 43.5265 54.5496 43.7785 54.4096C44.0399 54.2696 44.2312 54.069 44.3525 53.8076C44.4739 53.537 44.5485 53.215 44.5765 52.8416C44.6045 52.4683 44.6185 52.0436 44.6185 51.5676V45.7016H45.7945V51.2876C45.7945 52.0156 45.7572 52.6503 45.6825 53.1916C45.6172 53.733 45.4725 54.1856 45.2485 54.5496C45.0339 54.9136 44.7212 55.189 44.3105 55.3756C43.9092 55.553 43.3772 55.6416 42.7145 55.6416C42.0519 55.6416 41.5152 55.553 41.1045 55.3756C40.7032 55.189 40.3905 54.9136 40.1665 54.5496C39.9519 54.1856 39.8072 53.733 39.7325 53.1916C39.6672 52.6503 39.6345 52.0156 39.6345 51.2876V45.7016H40.8105ZM50.4651 55.4736H49.2891V45.7016H52.8451C53.7504 45.7016 54.4411 45.949 54.9171 46.4436C55.3931 46.9383 55.6311 47.629 55.6311 48.5156C55.6311 49.309 55.4257 49.9436 55.0151 50.4196C54.6044 50.8956 54.0071 51.171 53.2231 51.2456L55.7151 55.4736H54.3991L52.0191 51.3016H50.4651V55.4736ZM52.8171 50.3076C53.3117 50.3076 53.6944 50.1863 53.9651 49.9436C54.2451 49.6916 54.3851 49.337 54.3851 48.8796V48.1516C54.3851 47.6943 54.2451 47.3443 53.9651 47.1016C53.6944 46.8496 53.3117 46.7236 52.8171 46.7236H50.4651V50.3076H52.8171ZM58.8036 55.4736V45.7016H64.9636V46.7236H59.9796V50.0136H64.5436V51.0356H59.9796V55.4736H58.8036Z" fill="#78D063"/>
<path d="M581.713 63.1074L581.712 63.1074C571.016 63.1074 562.346 71.778 562.346 82.4736" stroke="#678DE3" stroke-width="0.9"/>
<path d="M681.875 63.1074L681.876 63.1074C692.572 63.1074 701.242 54.4369 701.242 43.7412" stroke="#678DE3" stroke-width="0.9"/>
<path d="M562.346 148.767L562.346 82.4736" stroke="#678DE3" stroke-width="0.9"/>
<path d="M701.242 43.7412L701.242 20.4141" stroke="#678DE3" stroke-width="0.9"/>
<path d="M581.713 63.1074L681.874 63.1074" stroke="#678DE3" stroke-width="0.9"/>
<path d="M210.982 49.9736L210.983 49.9736C221.679 49.9736 230.35 58.6442 230.35 69.3398" stroke="#78D063" stroke-width="0.9"/>
<path d="M230.35 148.768L230.35 69.3398" stroke="#78D063" stroke-width="0.9"/>
<path d="M210.982 49.9736L78.9023 49.9736" stroke="#78D063" stroke-width="0.9"/>
<path d="M1092.04 411.171L1092.04 411.171C1102.74 411.171 1111.41 419.841 1111.41 430.537" stroke="#FF6B6B" stroke-width="0.9"/>
<path d="M1047.63 411.171L1047.63 411.171C1036.93 411.171 1028.26 402.5 1028.26 391.805" stroke="#FF6B6B" stroke-width="0.9"/>
<path d="M1111.41 496.831L1111.41 430.537" stroke="#FF6B6B" stroke-width="0.9"/>
<path d="M1028.26 391.805L1028.26 368.478" stroke="#FF6B6B" stroke-width="0.9"/>
<path d="M1092.04 411.171H1047.63" stroke="#FF6B6B" stroke-width="0.9"/>
</svg>
