<svg width="1180" height="525" viewBox="0 0 1180 525" fill="none" xmlns="http://www.w3.org/2000/svg">
<path d="M253.873 340.606C253.873 345.893 252.065 350.485 248.447 354.381C244.829 357.999 240.237 359.808 234.672 359.808C229.384 359.808 224.792 357.999 220.896 354.381C217.279 350.485 215.47 345.893 215.47 340.606V173.634C215.47 167.233 213.244 161.946 208.791 157.772C204.617 153.319 199.329 151.093 192.929 151.093C186.806 151.093 181.519 153.319 177.066 157.772C172.614 162.224 170.387 167.512 170.387 173.634V340.606C170.387 345.893 168.579 350.485 164.961 354.381C161.343 357.999 156.751 359.808 151.186 359.808C145.898 359.808 141.306 357.999 137.41 354.381C133.793 350.485 131.984 345.893 131.984 340.606V173.634C131.984 167.233 129.758 161.946 125.305 157.772C121.131 153.319 115.843 151.093 109.443 151.093C103.32 151.093 98.0329 153.319 93.5803 157.772C89.1277 162.224 86.9014 167.512 86.9014 173.634V340.606C86.9014 345.893 85.0925 350.485 81.4748 354.381C77.8571 357.999 73.2654 359.808 67.6996 359.808C62.4122 359.808 57.8205 357.999 53.9244 354.381C50.3067 350.485 48.4978 345.893 48.4978 340.606V173.634C48.4978 168.347 50.3067 163.894 53.9244 160.276C57.8205 156.38 62.4122 154.432 67.6996 154.432C73.8219 154.432 79.1094 152.206 83.562 147.753C88.0146 143.301 90.2409 138.013 90.2409 131.891C90.2409 126.604 92.0497 122.151 95.6674 118.533C99.5635 114.637 104.155 112.689 109.443 112.689C115.008 112.689 119.6 114.498 123.218 118.116C126.836 121.734 128.644 126.325 128.644 131.891C128.644 138.013 130.871 143.301 135.323 147.753C139.776 152.206 145.063 154.432 151.186 154.432C157.308 154.432 162.595 152.206 167.048 147.753C171.501 143.301 173.727 138.013 173.727 131.891C173.727 126.604 175.536 122.151 179.153 118.533C183.049 114.637 187.641 112.689 192.929 112.689C198.494 112.689 203.086 114.498 206.704 118.116C210.322 121.734 212.13 126.325 212.13 131.891C212.13 138.013 214.357 143.301 218.809 147.753C223.262 152.206 228.549 154.432 234.672 154.432C240.237 154.432 244.829 156.241 248.447 159.859C252.065 163.477 253.873 168.068 253.873 173.634V340.606ZM298.834 257.12C298.834 251.833 300.642 247.38 304.26 243.762C308.156 239.866 312.748 237.918 318.035 237.918H359.778C365.344 237.918 369.936 239.727 373.554 243.345C377.171 246.963 378.98 251.554 378.98 257.12C378.98 262.407 377.171 266.999 373.554 270.895C369.936 274.513 365.344 276.322 359.778 276.322H318.035C311.913 276.322 306.626 278.548 302.173 283.001C297.72 287.453 295.494 292.741 295.494 298.863C295.494 304.985 297.72 310.273 302.173 314.725C306.626 319.178 311.913 321.404 318.035 321.404H359.778C365.901 321.404 371.188 319.178 375.641 314.725C380.093 310.273 382.32 304.985 382.32 298.863V215.377C382.32 208.976 380.093 203.689 375.641 199.515C371.466 195.062 366.179 192.836 359.778 192.836H318.035C311.913 192.836 306.626 195.062 302.173 199.515C297.72 203.967 295.494 209.255 295.494 215.377C295.494 220.664 293.685 225.256 290.068 229.152C286.45 232.77 281.858 234.579 276.292 234.579C271.005 234.579 266.413 232.77 262.517 229.152C258.899 225.256 257.091 220.664 257.091 215.377C257.091 210.09 258.899 205.637 262.517 202.019C266.413 198.123 271.005 196.175 276.292 196.175C282.693 196.175 287.98 193.949 292.155 189.496C296.607 185.044 298.834 179.756 298.834 173.634C298.834 168.347 300.642 163.894 304.26 160.276C308.156 156.38 312.748 154.432 318.035 154.432H359.778C365.344 154.432 369.936 156.241 373.554 159.859C377.171 163.477 378.98 168.068 378.98 173.634C378.98 179.756 381.206 185.044 385.659 189.496C390.112 193.949 395.399 196.175 401.521 196.175C407.087 196.175 411.679 197.984 415.297 201.602C418.914 205.22 420.723 209.811 420.723 215.377V298.863C420.723 304.15 418.775 308.742 414.879 312.638C411.261 316.256 406.809 318.065 401.521 318.065C395.399 318.065 390.112 320.291 385.659 324.744C381.206 328.918 378.98 334.205 378.98 340.606C378.98 345.893 377.032 350.485 373.136 354.381C369.518 357.999 365.066 359.808 359.778 359.808H318.035C312.748 359.808 308.156 357.999 304.26 354.381C300.642 350.485 298.834 345.893 298.834 340.606C298.834 334.205 296.607 328.918 292.155 324.744C287.98 320.291 282.693 318.065 276.292 318.065C271.005 318.065 266.413 316.256 262.517 312.638C258.899 308.742 257.091 304.15 257.091 298.863C257.091 293.576 258.899 289.123 262.517 285.505C266.413 281.609 271.005 279.661 276.292 279.661C282.415 279.661 287.702 277.435 292.155 272.982C296.607 268.53 298.834 263.242 298.834 257.12ZM484.967 279.661C490.532 279.661 495.124 281.47 498.742 285.088C502.36 288.706 504.168 293.297 504.168 298.863C504.168 304.985 506.395 310.273 510.847 314.725C515.3 319.178 520.587 321.404 526.71 321.404C532.832 321.404 538.119 319.178 542.572 314.725C547.025 310.273 549.251 304.985 549.251 298.863V215.377C549.251 208.976 547.025 203.689 542.572 199.515C538.398 195.062 533.11 192.836 526.71 192.836H484.967C478.844 192.836 473.557 195.062 469.104 199.515C464.652 203.967 462.425 209.255 462.425 215.377V382.349C462.425 387.915 460.617 392.507 456.999 396.124C453.381 399.742 448.789 401.551 443.224 401.551C437.936 401.551 433.344 399.603 429.448 395.707C425.831 392.089 424.022 387.636 424.022 382.349V215.377C424.022 210.09 425.831 205.637 429.448 202.019C433.344 198.123 437.936 196.175 443.224 196.175C449.624 196.175 454.912 193.949 459.086 189.496C463.539 185.044 465.765 179.756 465.765 173.634C465.765 168.347 467.574 163.894 471.191 160.276C475.087 156.38 479.679 154.432 484.967 154.432H526.71C532.275 154.432 536.867 156.241 540.485 159.859C544.103 163.477 545.911 168.068 545.911 173.634C545.911 179.756 548.138 185.044 552.59 189.496C557.043 193.949 562.33 196.175 568.453 196.175C574.018 196.175 578.61 197.984 582.228 201.602C585.846 205.22 587.654 209.811 587.654 215.377V298.863C587.654 304.15 585.706 308.742 581.81 312.638C578.193 316.256 573.74 318.065 568.453 318.065C562.33 318.065 557.043 320.291 552.59 324.744C548.138 328.918 545.911 334.205 545.911 340.606C545.911 345.893 543.963 350.485 540.067 354.381C536.45 357.999 531.997 359.808 526.71 359.808C521.422 359.808 516.83 357.999 512.934 354.381C509.317 350.485 507.508 345.893 507.508 340.606C507.508 334.205 505.282 328.918 500.829 324.744C496.655 320.291 491.367 318.065 484.967 318.065C479.679 318.065 475.087 316.256 471.191 312.638C467.574 308.742 465.765 304.15 465.765 298.863C465.765 293.576 467.574 289.123 471.191 285.505C475.087 281.609 479.679 279.661 484.967 279.661ZM651.898 279.661C657.464 279.661 662.055 281.47 665.673 285.088C669.291 288.706 671.1 293.297 671.1 298.863C671.1 304.985 673.326 310.273 677.779 314.725C682.231 319.178 687.519 321.404 693.641 321.404C699.763 321.404 705.051 319.178 709.503 314.725C713.956 310.273 716.182 304.985 716.182 298.863V215.377C716.182 208.976 713.956 203.689 709.503 199.515C705.329 195.062 700.041 192.836 693.641 192.836H651.898C645.776 192.836 640.488 195.062 636.036 199.515C631.583 203.967 629.357 209.255 629.357 215.377V382.349C629.357 387.915 627.548 392.507 623.93 396.124C620.312 399.742 615.721 401.551 610.155 401.551C604.867 401.551 600.276 399.603 596.38 395.707C592.762 392.089 590.953 387.636 590.953 382.349V215.377C590.953 210.09 592.762 205.637 596.38 202.019C600.276 198.123 604.867 196.175 610.155 196.175C616.555 196.175 621.843 193.949 626.017 189.496C630.47 185.044 632.696 179.756 632.696 173.634C632.696 168.347 634.505 163.894 638.123 160.276C642.019 156.38 646.61 154.432 651.898 154.432H693.641C699.207 154.432 703.798 156.241 707.416 159.859C711.034 163.477 712.843 168.068 712.843 173.634C712.843 179.756 715.069 185.044 719.522 189.496C723.974 193.949 729.262 196.175 735.384 196.175C740.95 196.175 745.541 197.984 749.159 201.602C752.777 205.22 754.586 209.811 754.586 215.377V298.863C754.586 304.15 752.638 308.742 748.742 312.638C745.124 316.256 740.671 318.065 735.384 318.065C729.262 318.065 723.974 320.291 719.522 324.744C715.069 328.918 712.843 334.205 712.843 340.606C712.843 345.893 710.895 350.485 706.999 354.381C703.381 357.999 698.928 359.808 693.641 359.808C688.353 359.808 683.762 357.999 679.866 354.381C676.248 350.485 674.439 345.893 674.439 340.606C674.439 334.205 672.213 328.918 667.76 324.744C663.586 320.291 658.298 318.065 651.898 318.065C646.61 318.065 642.019 316.256 638.123 312.638C634.505 308.742 632.696 304.15 632.696 298.863C632.696 293.576 634.505 289.123 638.123 285.505C642.019 281.609 646.61 279.661 651.898 279.661ZM879.774 257.12C879.774 262.407 877.965 266.999 874.347 270.895C870.73 274.513 866.138 276.322 860.572 276.322H818.829C813.542 276.322 808.95 274.513 805.054 270.895C801.436 266.999 799.627 262.407 799.627 257.12C799.627 251.833 801.436 247.38 805.054 243.762C808.95 239.866 813.542 237.918 818.829 237.918H860.572C866.973 237.918 872.26 235.692 876.435 231.239C880.887 226.787 883.113 221.499 883.113 215.377C883.113 208.976 880.887 203.689 876.435 199.515C872.26 195.062 866.973 192.836 860.572 192.836H818.829C812.707 192.836 807.419 195.062 802.967 199.515C798.514 203.967 796.288 209.255 796.288 215.377V298.863C796.288 304.985 798.514 310.273 802.967 314.725C807.419 319.178 812.707 321.404 818.829 321.404H860.572C866.694 321.404 871.982 319.178 876.435 314.725C880.887 310.273 883.113 304.985 883.113 298.863C883.113 293.576 884.922 289.123 888.54 285.505C892.436 281.609 897.028 279.661 902.315 279.661C907.881 279.661 912.473 281.47 916.09 285.088C919.708 288.706 921.517 293.297 921.517 298.863C921.517 304.15 919.569 308.742 915.673 312.638C912.055 316.256 907.603 318.065 902.315 318.065C896.193 318.065 890.905 320.291 886.453 324.744C882 329.196 879.774 334.484 879.774 340.606C879.774 345.893 877.826 350.485 873.93 354.381C870.312 357.999 865.86 359.808 860.572 359.808H818.829C813.542 359.808 808.95 357.999 805.054 354.381C801.436 350.485 799.627 345.893 799.627 340.606C799.627 334.205 797.401 328.918 792.949 324.744C788.774 320.291 783.487 318.065 777.086 318.065C771.799 318.065 767.207 316.256 763.311 312.638C759.693 308.742 757.884 304.15 757.884 298.863V215.377C757.884 210.09 759.693 205.637 763.311 202.019C767.207 198.123 771.799 196.175 777.086 196.175C783.487 196.175 788.774 193.949 792.949 189.496C797.401 185.044 799.627 179.756 799.627 173.634C799.627 168.347 801.436 163.894 805.054 160.276C808.95 156.38 813.542 154.432 818.829 154.432H860.572C866.138 154.432 870.73 156.241 874.347 159.859C877.965 163.477 879.774 168.068 879.774 173.634C879.774 179.756 882 185.044 886.453 189.496C890.905 193.949 896.193 196.175 902.315 196.175C907.881 196.175 912.473 197.984 916.09 201.602C919.708 205.22 921.517 209.811 921.517 215.377C921.517 220.664 919.708 225.256 916.09 229.152C912.473 232.77 907.881 234.579 902.315 234.579C896.193 234.579 890.905 236.805 886.453 241.258C882 245.71 879.774 250.998 879.774 257.12ZM1027.5 234.579C1022.22 234.579 1017.62 232.77 1013.73 229.152C1010.11 225.256 1008.3 220.664 1008.3 215.377C1008.3 208.976 1006.08 203.689 1001.62 199.515C997.448 195.062 992.161 192.836 985.76 192.836C979.638 192.836 974.351 195.062 969.898 199.515C965.445 203.967 963.219 209.255 963.219 215.377V298.863C963.219 304.985 965.445 310.273 969.898 314.725C974.351 319.178 979.638 321.404 985.76 321.404H1027.5C1033.63 321.404 1038.91 319.178 1043.37 314.725C1047.82 310.273 1050.04 304.985 1050.04 298.863V131.891C1050.04 126.604 1051.85 122.151 1055.47 118.533C1059.37 114.637 1063.96 112.689 1069.25 112.689C1074.81 112.689 1079.4 114.498 1083.02 118.116C1086.64 121.734 1088.45 126.325 1088.45 131.891V298.863C1088.45 304.15 1086.5 308.742 1082.6 312.638C1078.99 316.256 1074.53 318.065 1069.25 318.065C1063.12 318.065 1057.84 320.291 1053.38 324.744C1048.93 329.196 1046.71 334.484 1046.71 340.606C1046.71 345.893 1044.76 350.485 1040.86 354.381C1037.24 357.999 1032.79 359.808 1027.5 359.808H985.76C980.473 359.808 975.881 357.999 971.985 354.381C968.367 350.485 966.559 345.893 966.559 340.606C966.559 334.205 964.332 328.918 959.88 324.744C955.705 320.291 950.418 318.065 944.017 318.065C938.73 318.065 934.138 316.256 930.242 312.638C926.624 308.742 924.816 304.15 924.816 298.863V215.377C924.816 210.09 926.624 205.637 930.242 202.019C934.138 198.123 938.73 196.175 944.017 196.175C950.418 196.175 955.705 193.949 959.88 189.496C964.332 185.044 966.559 179.756 966.559 173.634C966.559 168.347 968.367 163.894 971.985 160.276C975.881 156.38 980.473 154.432 985.76 154.432C991.326 154.432 995.918 156.241 999.536 159.859C1003.15 163.477 1004.96 168.068 1004.96 173.634C1004.96 179.756 1007.19 185.044 1011.64 189.496C1016.09 193.949 1021.38 196.175 1027.5 196.175C1033.07 196.175 1037.66 197.984 1041.28 201.602C1044.9 205.22 1046.71 209.811 1046.71 215.377C1046.71 220.664 1044.9 225.256 1041.28 229.152C1037.66 232.77 1033.07 234.579 1027.5 234.579Z" fill="#383838"/>
<circle cx="484.57" cy="339.61" r="16.865" fill="#678DE3"/>
<circle cx="609.006" cy="172.61" r="16.865" fill="#678DE3"/>
<circle cx="275.849" cy="172.816" r="16.865" fill="#678DE3"/>
<circle cx="902.343" cy="257.687" r="16.865" fill="#678DE3"/>
<circle cx="1069.08" cy="340.612" r="16.865" fill="#678DE3"/>
<path d="M727.269 8.97695V5.88295H727.157L725.099 10.909L723.041 5.88295H722.929V8.97695V13.877H721.851V4.10495H723.363L725.085 8.41695H725.169L726.891 4.10495H728.347V13.877H727.269V8.97695ZM731.674 13.877V4.10495H737.694V5.12695H732.85V8.41695H737.526V9.43895H732.85V12.855H737.694V13.877H731.674ZM746.298 8.97695V5.88295H746.186L744.128 10.909L742.07 5.88295H741.958V8.97695V13.877H740.88V4.10495H742.392L744.114 8.41695H744.198L745.92 4.10495H747.376V13.877H746.298V8.97695ZM750.675 4.10495H753.993C754.833 4.10495 755.491 4.33362 755.967 4.79095C756.443 5.24829 756.681 5.85962 756.681 6.62495C756.681 7.21295 756.536 7.67495 756.247 8.01095C755.967 8.34695 755.603 8.58495 755.155 8.72495V8.76695C755.706 8.89762 756.158 9.14495 756.513 9.50895C756.868 9.86362 757.045 10.3816 757.045 11.063C757.045 11.455 756.98 11.8236 756.849 12.169C756.718 12.5143 756.532 12.813 756.289 13.065C756.056 13.317 755.776 13.5176 755.449 13.667C755.132 13.807 754.786 13.877 754.413 13.877H750.675V4.10495ZM754.063 12.855C754.604 12.855 755.029 12.7336 755.337 12.491C755.645 12.2483 755.799 11.875 755.799 11.371V10.797C755.799 10.3023 755.645 9.93362 755.337 9.69095C755.029 9.43895 754.604 9.31295 754.063 9.31295H751.851V12.855H754.063ZM753.867 8.34695C754.362 8.34695 754.749 8.23962 755.029 8.02495C755.309 7.80095 755.449 7.46495 755.449 7.01695V6.47095C755.449 6.02295 755.309 5.68695 755.029 5.46295C754.749 5.23895 754.362 5.12695 753.867 5.12695H751.851V8.34695H753.867ZM760.218 13.877V4.10495H766.238V5.12695H761.394V8.41695H766.07V9.43895H761.394V12.855H766.238V13.877H760.218ZM770.908 13.877H769.732V4.10495H773.288C774.193 4.10495 774.884 4.35229 775.36 4.84695C775.836 5.34162 776.074 6.03229 776.074 6.91895C776.074 7.71229 775.869 8.34695 775.458 8.82295C775.047 9.29895 774.45 9.57429 773.666 9.64895L776.158 13.877H774.842L772.462 9.70495H770.908V13.877ZM773.26 8.71095C773.755 8.71095 774.137 8.58962 774.408 8.34695C774.688 8.09495 774.828 7.74029 774.828 7.28295V6.55495C774.828 6.09762 774.688 5.74762 774.408 5.50495C774.137 5.25295 773.755 5.12695 773.26 5.12695H770.908V8.71095H773.26Z" fill="#678DE3"/>
<path d="M1134.1 522.214V512.442H1140.12V513.464H1135.27V516.754H1139.95V517.776H1135.27V521.192H1140.12V522.214H1134.1ZM1145.75 522.214L1142.86 512.442H1144.1L1145.49 517.328L1146.54 521.024H1146.61L1147.66 517.328L1149.04 512.442H1150.25L1147.35 522.214H1145.75ZM1153.13 522.214V512.442H1159.15V513.464H1154.3V516.754H1158.98V517.776H1154.3V521.192H1159.15V522.214H1153.13ZM1163.66 513.982H1163.56V522.214H1162.5V512.442H1164.17L1167.5 520.674H1167.6V512.442H1168.66V522.214H1166.99L1163.66 513.982ZM1175.68 513.464V522.214H1174.51V513.464H1171.25V512.442H1178.95V513.464H1175.68Z" fill="#678DE3"/>
<path d="M4.36406 55.6416C3.76673 55.6416 3.2534 55.5296 2.82406 55.3056C2.39473 55.0723 2.04006 54.741 1.76006 54.3116C1.48006 53.8823 1.27473 53.355 1.14406 52.7296C1.0134 52.1043 0.948063 51.3903 0.948063 50.5876C0.948063 49.7943 1.0134 49.085 1.14406 48.4596C1.27473 47.825 1.48006 47.293 1.76006 46.8636C2.04006 46.4343 2.39473 46.1076 2.82406 45.8836C3.2534 45.6503 3.76673 45.5336 4.36406 45.5336C4.9614 45.5336 5.47473 45.6503 5.90406 45.8836C6.3334 46.1076 6.68806 46.4343 6.96806 46.8636C7.24806 47.293 7.4534 47.825 7.58406 48.4596C7.71473 49.085 7.78006 49.7943 7.78006 50.5876C7.78006 51.3903 7.71473 52.1043 7.58406 52.7296C7.4534 53.355 7.24806 53.8823 6.96806 54.3116C6.68806 54.741 6.3334 55.0723 5.90406 55.3056C5.47473 55.5296 4.9614 55.6416 4.36406 55.6416ZM4.36406 54.6196C4.75606 54.6196 5.0874 54.545 5.35806 54.3956C5.62873 54.237 5.85273 54.0176 6.03006 53.7376C6.2074 53.4576 6.3334 53.1216 6.40806 52.7296C6.49206 52.3283 6.53406 51.8803 6.53406 51.3856V49.7896C6.53406 49.3043 6.49206 48.861 6.40806 48.4596C6.3334 48.0583 6.2074 47.7176 6.03006 47.4376C5.85273 47.1576 5.62873 46.943 5.35806 46.7936C5.0874 46.635 4.75606 46.5556 4.36406 46.5556C3.97206 46.5556 3.64073 46.635 3.37006 46.7936C3.0994 46.943 2.8754 47.1576 2.69806 47.4376C2.52073 47.7176 2.39006 48.0583 2.30606 48.4596C2.2314 48.861 2.19406 49.3043 2.19406 49.7896V51.3856C2.19406 51.8803 2.2314 52.3283 2.30606 52.7296C2.39006 53.1216 2.52073 53.4576 2.69806 53.7376C2.8754 54.0176 3.0994 54.237 3.37006 54.3956C3.64073 54.545 3.97206 54.6196 4.36406 54.6196ZM12.1146 55.4736H10.9386V45.7016H14.4946C15.3999 45.7016 16.0906 45.949 16.5666 46.4436C17.0426 46.9383 17.2806 47.629 17.2806 48.5156C17.2806 49.309 17.0753 49.9436 16.6646 50.4196C16.2539 50.8956 15.6566 51.171 14.8726 51.2456L17.3646 55.4736H16.0486L13.6686 51.3016H12.1146V55.4736ZM14.4666 50.3076C14.9613 50.3076 15.3439 50.1863 15.6146 49.9436C15.8946 49.6916 16.0346 49.337 16.0346 48.8796V48.1516C16.0346 47.6943 15.8946 47.3443 15.6146 47.1016C15.3439 46.8496 14.9613 46.7236 14.4666 46.7236H12.1146V50.3076H14.4666ZM25.4091 54.1716H25.3391C25.2551 54.3583 25.1571 54.5403 25.0451 54.7176C24.9331 54.895 24.7885 55.0536 24.6111 55.1936C24.4431 55.3243 24.2378 55.4316 23.9951 55.5156C23.7525 55.5996 23.4631 55.6416 23.1271 55.6416C22.0631 55.6416 21.2698 55.2123 20.7471 54.3536C20.2338 53.495 19.9771 52.263 19.9771 50.6576C19.9771 48.9776 20.2618 47.7036 20.8311 46.8356C21.4005 45.9676 22.2778 45.5336 23.4631 45.5336C23.9205 45.5336 24.3171 45.5943 24.6531 45.7156C24.9891 45.837 25.2738 46.0003 25.5071 46.2056C25.7498 46.411 25.9505 46.6443 26.1091 46.9056C26.2678 47.1576 26.3985 47.4143 26.5011 47.6756L25.4931 48.1376C25.4091 47.923 25.3111 47.7223 25.1991 47.5356C25.0965 47.3396 24.9658 47.1716 24.8071 47.0316C24.6578 46.8823 24.4758 46.7656 24.2611 46.6816C24.0465 46.5976 23.7945 46.5556 23.5051 46.5556C22.7211 46.5556 22.1425 46.8496 21.7691 47.4376C21.4051 48.0256 21.2231 48.8096 21.2231 49.7896V51.3016C21.2231 51.7963 21.2605 52.249 21.3351 52.6596C21.4098 53.061 21.5311 53.411 21.6991 53.7096C21.8765 54.0083 22.1005 54.2416 22.3711 54.4096C22.6511 54.5683 22.9918 54.6476 23.3931 54.6476C24.0278 54.6476 24.5225 54.4563 24.8771 54.0736C25.2318 53.691 25.4091 53.1963 25.4091 52.5896V51.5816H23.3511V50.6436H26.5011V55.4736H25.4091V54.1716ZM35.4417 55.4736L34.6157 52.6876H31.1857L30.3597 55.4736H29.1417L32.1377 45.7016H33.6917L36.6877 55.4736H35.4417ZM32.9637 46.9476H32.8377L31.4657 51.6656H34.3357L32.9637 46.9476ZM40.5042 47.2416H40.4062V55.4736H39.3422V45.7016H41.0082L44.3402 53.9336H44.4382V45.7016H45.5022V55.4736H43.8362L40.5042 47.2416ZM48.9127 55.4736V54.5356H51.3487V46.6396H48.9127V45.7016H54.9607V46.6396H52.5247V54.5356H54.9607V55.4736H48.9127ZM61.4233 55.6416C60.5459 55.6416 59.8273 55.483 59.2673 55.1656C58.7073 54.839 58.2453 54.4236 57.8813 53.9196L58.7353 53.2196C59.1179 53.6956 59.5193 54.0503 59.9393 54.2836C60.3686 54.517 60.8773 54.6336 61.4653 54.6336C62.1746 54.6336 62.7159 54.4703 63.0893 54.1436C63.4626 53.817 63.6493 53.3596 63.6493 52.7716C63.6493 52.2956 63.5139 51.927 63.2433 51.6656C62.9726 51.395 62.5013 51.2036 61.8293 51.0916L60.7373 50.9096C60.2613 50.8256 59.8599 50.6996 59.5333 50.5316C59.2159 50.3636 58.9593 50.163 58.7633 49.9296C58.5673 49.687 58.4273 49.4256 58.3433 49.1456C58.2593 48.8563 58.2173 48.5576 58.2173 48.2496C58.2173 47.3536 58.5113 46.677 59.0993 46.2196C59.6873 45.7623 60.4806 45.5336 61.4793 45.5336C62.2633 45.5336 62.9213 45.6643 63.4533 45.9256C63.9946 46.187 64.4286 46.5556 64.7553 47.0316L63.9293 47.7456C63.6586 47.391 63.3319 47.1016 62.9493 46.8776C62.5666 46.6536 62.0719 46.5416 61.4653 46.5416C60.8026 46.5416 60.2939 46.6816 59.9393 46.9616C59.5846 47.2416 59.4073 47.6616 59.4073 48.2216C59.4073 48.6603 59.5379 49.0196 59.7993 49.2996C60.0699 49.5703 60.5506 49.7663 61.2413 49.8876L62.2913 50.0696C62.7673 50.1536 63.1686 50.2796 63.4953 50.4476C63.8219 50.6156 64.0833 50.8163 64.2793 51.0496C64.4846 51.283 64.6293 51.5443 64.7133 51.8336C64.7973 52.123 64.8393 52.4263 64.8393 52.7436C64.8393 53.649 64.5406 54.3583 63.9433 54.8716C63.3553 55.385 62.5153 55.6416 61.4233 55.6416ZM73.4998 55.4736L72.6738 52.6876H69.2438L68.4178 55.4736H67.1998L70.1958 45.7016H71.7498L74.7458 55.4736H73.4998ZM71.0218 46.9476H70.8958L69.5238 51.6656H72.3938L71.0218 46.9476ZM81.0683 46.7236V55.4736H79.8923V46.7236H76.6303V45.7016H84.3303V46.7236H81.0683ZM86.9708 55.4736V54.5356H89.4068V46.6396H86.9708V45.7016H93.0188V46.6396H90.5828V54.5356H93.0188V55.4736H86.9708ZM99.5094 55.6416C98.912 55.6416 98.3987 55.5296 97.9694 55.3056C97.54 55.0723 97.1854 54.741 96.9054 54.3116C96.6254 53.8823 96.42 53.355 96.2894 52.7296C96.1587 52.1043 96.0934 51.3903 96.0934 50.5876C96.0934 49.7943 96.1587 49.085 96.2894 48.4596C96.42 47.825 96.6254 47.293 96.9054 46.8636C97.1854 46.4343 97.54 46.1076 97.9694 45.8836C98.3987 45.6503 98.912 45.5336 99.5094 45.5336C100.107 45.5336 100.62 45.6503 101.049 45.8836C101.479 46.1076 101.833 46.4343 102.113 46.8636C102.393 47.293 102.599 47.825 102.729 48.4596C102.86 49.085 102.925 49.7943 102.925 50.5876C102.925 51.3903 102.86 52.1043 102.729 52.7296C102.599 53.355 102.393 53.8823 102.113 54.3116C101.833 54.741 101.479 55.0723 101.049 55.3056C100.62 55.5296 100.107 55.6416 99.5094 55.6416ZM99.5094 54.6196C99.9014 54.6196 100.233 54.545 100.503 54.3956C100.774 54.237 100.998 54.0176 101.175 53.7376C101.353 53.4576 101.479 53.1216 101.553 52.7296C101.637 52.3283 101.679 51.8803 101.679 51.3856V49.7896C101.679 49.3043 101.637 48.861 101.553 48.4596C101.479 48.0583 101.353 47.7176 101.175 47.4376C100.998 47.1576 100.774 46.943 100.503 46.7936C100.233 46.635 99.9014 46.5556 99.5094 46.5556C99.1174 46.5556 98.786 46.635 98.5154 46.7936C98.2447 46.943 98.0207 47.1576 97.8434 47.4376C97.666 47.7176 97.5354 48.0583 97.4514 48.4596C97.3767 48.861 97.3394 49.3043 97.3394 49.7896V51.3856C97.3394 51.8803 97.3767 52.3283 97.4514 52.7296C97.5354 53.1216 97.666 53.4576 97.8434 53.7376C98.0207 54.0176 98.2447 54.237 98.5154 54.3956C98.786 54.545 99.1174 54.6196 99.5094 54.6196ZM107.106 47.2416H107.008V55.4736H105.944V45.7016H107.61L110.942 53.9336H111.04V45.7016H112.104V55.4736H110.438L107.106 47.2416Z" fill="#678DE3"/>
<path d="M627.713 63.1074L627.712 63.1074C617.016 63.1074 608.346 71.778 608.346 82.4736" stroke="#678DE3" stroke-width="0.9"/>
<path d="M727.875 63.1074L727.876 63.1074C738.572 63.1074 747.242 54.4369 747.242 43.7412" stroke="#678DE3" stroke-width="0.9"/>
<path d="M608.346 148.767L608.346 82.4736" stroke="#678DE3" stroke-width="0.9"/>
<path d="M747.242 43.7412L747.242 20.4141" stroke="#678DE3" stroke-width="0.9"/>
<path d="M627.713 63.1074L727.874 63.1074" stroke="#678DE3" stroke-width="0.9"/>
<path d="M256.982 49.9736L256.983 49.9736C267.679 49.9736 276.35 58.6442 276.35 69.3398" stroke="#678DE3" stroke-width="0.9"/>
<path d="M276.35 148.768L276.35 69.3398" stroke="#678DE3" stroke-width="0.9"/>
<path d="M256.982 49.9736L124.902 49.9736" stroke="#678DE3" stroke-width="0.9"/>
<path d="M1138.04 411.171L1138.04 411.171C1148.74 411.171 1157.41 419.841 1157.41 430.537" stroke="#678DE3" stroke-width="0.9"/>
<path d="M1093.63 411.171L1093.63 411.171C1082.93 411.171 1074.26 402.5 1074.26 391.805" stroke="#678DE3" stroke-width="0.9"/>
<path d="M1157.41 496.831L1157.41 430.537" stroke="#678DE3" stroke-width="0.9"/>
<path d="M1074.26 391.805L1074.26 368.478" stroke="#678DE3" stroke-width="0.9"/>
<path d="M1138.04 411.171H1093.63" stroke="#678DE3" stroke-width="0.9"/>
</svg>
