<svg fill="none" xmlns="http://www.w3.org/2000/svg" viewBox="0 0 1349 525"><path d="M347.93 340.711c0 5.288-1.809 9.879-5.427 13.775-3.617 3.618-8.209 5.427-13.775 5.427-5.287 0-9.879-1.809-13.775-5.427-3.618-3.896-5.426-8.487-5.426-13.775V173.739c0-6.4-2.227-11.688-6.679-15.862-4.175-4.453-9.462-6.679-15.863-6.679-6.122 0-11.409 2.226-15.862 6.679-4.453 4.452-6.679 9.74-6.679 15.862v166.972c0 5.288-1.809 9.879-5.427 13.775-3.617 3.618-8.209 5.427-13.775 5.427-5.287 0-9.879-1.809-13.775-5.427-3.618-3.896-5.427-8.487-5.427-13.775V173.739c0-6.4-2.226-11.688-6.678-15.862-4.175-4.453-9.462-6.679-15.863-6.679-6.122 0-11.409 2.226-15.862 6.679-4.453 4.452-6.679 9.74-6.679 15.862v166.972c0 5.288-1.809 9.879-5.427 13.775-3.617 3.618-8.209 5.427-13.775 5.427-5.287 0-9.879-1.809-13.775-5.427-3.618-3.896-5.427-8.487-5.427-13.775V173.739c0-5.287 1.809-9.74 5.427-13.358 3.896-3.896 8.488-5.844 13.775-5.844 6.123 0 11.41-2.226 15.863-6.678 4.452-4.453 6.678-9.74 6.678-15.863 0-5.287 1.809-9.74 5.427-13.358 3.896-3.896 8.488-5.844 13.775-5.844 5.566 0 10.158 1.809 13.775 5.427 3.618 3.618 5.427 8.209 5.427 13.775 0 6.123 2.226 11.41 6.679 15.863 4.453 4.452 9.74 6.678 15.862 6.678 6.123 0 11.41-2.226 15.863-6.678 4.452-4.453 6.679-9.74 6.679-15.863 0-5.287 1.808-9.74 5.426-13.358 3.896-3.896 8.488-5.844 13.775-5.844 5.566 0 10.158 1.809 13.775 5.427 3.618 3.618 5.427 8.209 5.427 13.775 0 6.123 2.226 11.41 6.679 15.863 4.453 4.452 9.74 6.678 15.862 6.678 5.566 0 10.158 1.809 13.775 5.427 3.618 3.618 5.427 8.21 5.427 13.775v166.972Zm44.96-83.486c0-5.287 1.809-9.74 5.427-13.358 3.896-3.896 8.488-5.844 13.775-5.844h41.743c5.566 0 10.157 1.809 13.775 5.427 3.618 3.618 5.427 8.21 5.427 13.775 0 5.288-1.809 9.879-5.427 13.775-3.618 3.618-8.209 5.427-13.775 5.427h-41.743c-6.122 0-11.41 2.226-15.862 6.679-4.453 4.452-6.679 9.74-6.679 15.862 0 6.123 2.226 11.41 6.679 15.863 4.452 4.452 9.74 6.678 15.862 6.678h41.743c6.122 0 11.41-2.226 15.862-6.678 4.453-4.453 6.679-9.74 6.679-15.863v-83.486c0-6.4-2.226-11.688-6.679-15.862-4.174-4.453-9.461-6.679-15.862-6.679h-41.743c-6.122 0-11.41 2.226-15.862 6.679-4.453 4.452-6.679 9.74-6.679 15.862 0 5.288-1.809 9.879-5.427 13.775-3.618 3.618-8.209 5.427-13.775 5.427-5.287 0-9.879-1.809-13.775-5.427-3.618-3.896-5.427-8.487-5.427-13.775 0-5.287 1.809-9.74 5.427-13.358 3.896-3.896 8.488-5.844 13.775-5.844 6.401 0 11.688-2.226 15.862-6.678 4.453-4.453 6.679-9.74 6.679-15.863 0-5.287 1.809-9.74 5.427-13.358 3.896-3.896 8.488-5.844 13.775-5.844h41.743c5.566 0 10.157 1.809 13.775 5.427 3.618 3.618 5.427 8.21 5.427 13.775 0 6.123 2.226 11.41 6.679 15.863 4.452 4.452 9.74 6.678 15.862 6.678 5.566 0 10.157 1.809 13.775 5.427 3.618 3.618 5.427 8.21 5.427 13.775v83.486c0 5.288-1.948 9.879-5.844 13.775-3.618 3.618-8.071 5.427-13.358 5.427-6.122 0-11.41 2.226-15.862 6.679-4.453 4.174-6.679 9.462-6.679 15.862 0 5.288-1.948 9.879-5.844 13.775-3.618 3.618-8.071 5.427-13.358 5.427h-41.743c-5.287 0-9.879-1.809-13.775-5.427-3.618-3.896-5.427-8.487-5.427-13.775 0-6.4-2.226-11.688-6.679-15.862-4.174-4.453-9.461-6.679-15.862-6.679-5.287 0-9.879-1.809-13.775-5.427-3.618-3.896-5.427-8.487-5.427-13.775 0-5.287 1.809-9.74 5.427-13.358 3.896-3.896 8.488-5.844 13.775-5.844 6.122 0 11.41-2.226 15.862-6.678 4.453-4.453 6.679-9.74 6.679-15.863Zm186.133 22.541c5.566 0 10.158 1.809 13.775 5.427 3.618 3.618 5.427 8.21 5.427 13.775 0 6.123 2.226 11.41 6.679 15.863 4.453 4.452 9.74 6.678 15.862 6.678 6.123 0 11.41-2.226 15.863-6.678 4.452-4.453 6.678-9.74 6.678-15.863v-83.486c0-6.4-2.226-11.688-6.678-15.862-4.175-4.453-9.462-6.679-15.863-6.679h-41.743c-6.122 0-11.409 2.226-15.862 6.679-4.453 4.452-6.679 9.74-6.679 15.862v166.972c0 5.566-1.809 10.158-5.427 13.775-3.617 3.618-8.209 5.427-13.775 5.427-5.287 0-9.879-1.948-13.775-5.844-3.618-3.618-5.427-8.07-5.427-13.358V215.482c0-5.287 1.809-9.74 5.427-13.358 3.896-3.896 8.488-5.844 13.775-5.844 6.401 0 11.688-2.226 15.863-6.678 4.452-4.453 6.678-9.74 6.678-15.863 0-5.287 1.809-9.74 5.427-13.358 3.896-3.896 8.488-5.844 13.775-5.844h41.743c5.566 0 10.158 1.809 13.775 5.427 3.618 3.618 5.427 8.21 5.427 13.775 0 6.123 2.226 11.41 6.679 15.863 4.453 4.452 9.74 6.678 15.862 6.678 5.566 0 10.158 1.809 13.775 5.427 3.618 3.618 5.427 8.21 5.427 13.775v83.486c0 5.288-1.948 9.879-5.844 13.775-3.618 3.618-8.07 5.427-13.358 5.427-6.122 0-11.409 2.226-15.862 6.679-4.453 4.174-6.679 9.462-6.679 15.862 0 5.288-1.948 9.879-5.844 13.775-3.618 3.618-8.07 5.427-13.358 5.427-5.287 0-9.879-1.809-13.775-5.427-3.618-3.896-5.427-8.487-5.427-13.775 0-6.4-2.226-11.688-6.678-15.862-4.175-4.453-9.462-6.679-15.863-6.679-5.287 0-9.879-1.809-13.775-5.427-3.618-3.896-5.427-8.487-5.427-13.775 0-5.287 1.809-9.74 5.427-13.358 3.896-3.896 8.488-5.844 13.775-5.844Zm166.932 0c5.565 0 10.157 1.809 13.775 5.427 3.617 3.618 5.426 8.21 5.426 13.775 0 6.123 2.227 11.41 6.679 15.863 4.453 4.452 9.74 6.678 15.863 6.678 6.122 0 11.409-2.226 15.862-6.678 4.452-4.453 6.679-9.74 6.679-15.863v-83.486c0-6.4-2.227-11.688-6.679-15.862-4.174-4.453-9.462-6.679-15.862-6.679h-41.743c-6.123 0-11.41 2.226-15.863 6.679-4.452 4.452-6.679 9.74-6.679 15.862v166.972c0 5.566-1.809 10.158-5.426 13.775-3.618 3.618-8.21 5.427-13.775 5.427-5.288 0-9.88-1.948-13.776-5.844-3.617-3.618-5.426-8.07-5.426-13.358V215.482c0-5.287 1.809-9.74 5.426-13.358 3.896-3.896 8.488-5.844 13.776-5.844 6.4 0 11.688-2.226 15.862-6.678 4.452-4.453 6.679-9.74 6.679-15.863 0-5.287 1.809-9.74 5.426-13.358 3.896-3.896 8.488-5.844 13.776-5.844h41.743c5.565 0 10.157 1.809 13.775 5.427 3.617 3.618 5.426 8.21 5.426 13.775 0 6.123 2.227 11.41 6.679 15.863 4.453 4.452 9.74 6.678 15.863 6.678 5.565 0 10.157 1.809 13.775 5.427 3.617 3.618 5.426 8.21 5.426 13.775v83.486c0 5.288-1.948 9.879-5.844 13.775-3.617 3.618-8.07 5.427-13.357 5.427-6.123 0-11.41 2.226-15.863 6.679-4.452 4.174-6.679 9.462-6.679 15.862 0 5.288-1.948 9.879-5.844 13.775-3.617 3.618-8.07 5.427-13.357 5.427-5.288 0-9.88-1.809-13.776-5.427-3.617-3.896-5.426-8.487-5.426-13.775 0-6.4-2.227-11.688-6.679-15.862-4.174-4.453-9.462-6.679-15.862-6.679-5.288 0-9.88-1.809-13.776-5.427-3.617-3.896-5.426-8.487-5.426-13.775 0-5.287 1.809-9.74 5.426-13.358 3.896-3.896 8.488-5.844 13.776-5.844Zm227.876-22.541c0 5.288-1.809 9.879-5.427 13.775-3.618 3.618-8.209 5.427-13.775 5.427h-41.743c-5.288 0-9.879-1.809-13.775-5.427-3.618-3.896-5.427-8.487-5.427-13.775 0-5.287 1.809-9.74 5.427-13.358 3.896-3.896 8.487-5.844 13.775-5.844h41.743c6.4 0 11.688-2.226 15.862-6.678 4.453-4.453 6.679-9.74 6.679-15.863 0-6.4-2.226-11.688-6.679-15.862-4.174-4.453-9.462-6.679-15.862-6.679h-41.743c-6.122 0-11.41 2.226-15.863 6.679-4.452 4.452-6.678 9.74-6.678 15.862v83.486c0 6.123 2.226 11.41 6.678 15.863 4.453 4.452 9.741 6.678 15.863 6.678h41.743c6.122 0 11.41-2.226 15.862-6.678 4.453-4.453 6.679-9.74 6.679-15.863 0-5.287 1.809-9.74 5.427-13.358 3.896-3.896 8.487-5.844 13.775-5.844 5.568 0 10.158 1.809 13.778 5.427 3.61 3.618 5.42 8.21 5.42 13.775 0 5.288-1.94 9.879-5.84 13.775-3.62 3.618-8.07 5.427-13.358 5.427-6.122 0-11.41 2.226-15.863 6.679-4.452 4.453-6.678 9.74-6.678 15.862 0 5.288-1.948 9.879-5.844 13.775-3.618 3.618-8.071 5.427-13.358 5.427h-41.743c-5.288 0-9.879-1.809-13.775-5.427-3.618-3.896-5.427-8.487-5.427-13.775 0-6.4-2.226-11.688-6.679-15.862-4.174-4.453-9.462-6.679-15.862-6.679-5.288 0-9.879-1.809-13.775-5.427-3.618-3.896-5.427-8.487-5.427-13.775v-83.486c0-5.287 1.809-9.74 5.427-13.358 3.896-3.896 8.487-5.844 13.775-5.844 6.4 0 11.688-2.226 15.862-6.678 4.453-4.453 6.679-9.74 6.679-15.863 0-5.287 1.809-9.74 5.427-13.358 3.896-3.896 8.487-5.844 13.775-5.844h41.743c5.566 0 10.157 1.809 13.775 5.427 3.618 3.618 5.427 8.21 5.427 13.775 0 6.123 2.226 11.41 6.678 15.863 4.453 4.452 9.741 6.678 15.863 6.678 5.568 0 10.158 1.809 13.778 5.427 3.61 3.618 5.42 8.21 5.42 13.775 0 5.288-1.81 9.879-5.42 13.775-3.62 3.618-8.21 5.427-13.778 5.427-6.122 0-11.41 2.226-15.863 6.679-4.452 4.452-6.678 9.74-6.678 15.862Zm147.729-22.541c-5.29 0-9.88-1.809-13.78-5.427-3.61-3.896-5.42-8.487-5.42-13.775 0-6.4-2.23-11.688-6.68-15.862-4.17-4.453-9.46-6.679-15.86-6.679-6.13 0-11.41 2.226-15.87 6.679-4.45 4.452-6.67 9.74-6.67 15.862v83.486c0 6.123 2.22 11.41 6.67 15.863 4.46 4.452 9.74 6.678 15.87 6.678h41.74c6.12 0 11.41-2.226 15.86-6.678 4.45-4.453 6.68-9.74 6.68-15.863V131.996c0-5.287 1.81-9.74 5.43-13.358 3.89-3.896 8.49-5.844 13.77-5.844 5.57 0 10.16 1.809 13.78 5.427 3.62 3.618 5.42 8.209 5.42 13.775v166.972c0 5.288-1.94 9.879-5.84 13.775-3.62 3.618-8.07 5.427-13.36 5.427-6.12 0-11.41 2.226-15.86 6.679-4.45 4.453-6.68 9.74-6.68 15.862 0 5.288-1.95 9.879-5.84 13.775-3.62 3.618-8.07 5.427-13.36 5.427h-41.74c-5.29 0-9.88-1.809-13.78-5.427-3.62-3.896-5.42-8.487-5.42-13.775 0-6.4-2.23-11.688-6.68-15.862-4.18-4.453-9.47-6.679-15.87-6.679-5.28 0-9.88-1.809-13.77-5.427-3.62-3.896-5.43-8.487-5.43-13.775v-83.486c0-5.287 1.81-9.74 5.43-13.358 3.89-3.896 8.49-5.844 13.77-5.844 6.4 0 11.69-2.226 15.87-6.678 4.45-4.453 6.68-9.74 6.68-15.863 0-5.287 1.8-9.74 5.42-13.358 3.9-3.896 8.49-5.844 13.78-5.844 5.56 0 10.15 1.809 13.77 5.427 3.62 3.618 5.43 8.21 5.43 13.775 0 6.123 2.23 11.41 6.68 15.863 4.45 4.452 9.74 6.678 15.86 6.678 5.57 0 10.16 1.809 13.78 5.427 3.61 3.618 5.42 8.21 5.42 13.775 0 5.288-1.81 9.879-5.42 13.775-3.62 3.618-8.21 5.427-13.78 5.427Z" fill="#0F172A"/><circle cx="578.595" cy="339.718" r="16.864" fill="#678DE3"/><circle cx="703.022" cy="172.718" r="16.864" fill="#678DE3"/><circle cx="369.889" cy="172.924" r="16.864" fill="#91E17E"/><circle cx="996.337" cy="257.795" r="16.864" fill="#678DE3"/><path d="M821.277 9.087V5.993h-.112l-2.058 5.026-2.058-5.026h-.112v7.994h-1.078V4.215h1.512l1.722 4.312h.084l1.722-4.312h1.456v9.772h-1.078v-4.9Zm4.405 4.9V4.215h6.02v1.022h-4.844v3.29h4.676v1.022h-4.676v3.416h4.844v1.022h-6.02Zm14.624-4.9V5.993h-.112l-2.058 5.026-2.058-5.026h-.112v7.994h-1.078V4.215h1.512l1.722 4.312h.084l1.722-4.312h1.456v9.772h-1.078v-4.9Zm4.377-4.872h3.318c.84 0 1.498.228 1.974.686.476.457.714 1.068.714 1.834 0 .588-.145 1.05-.434 1.386-.28.336-.644.574-1.092.714v.042c.55.13 1.003.378 1.358.742.354.354.532.872.532 1.554 0 .392-.066.76-.196 1.106a2.618 2.618 0 0 1-.56.896 2.624 2.624 0 0 1-.84.602c-.318.14-.663.21-1.036.21h-3.738V4.215Zm3.388 8.75c.541 0 .966-.122 1.274-.364.308-.243.462-.616.462-1.12v-.574c0-.495-.154-.864-.462-1.106-.308-.252-.733-.378-1.274-.378h-2.212v3.542h2.212Zm-.196-4.508c.494 0 .882-.108 1.162-.322.28-.224.42-.56.42-1.008V6.58c0-.448-.14-.784-.42-1.008-.28-.224-.668-.336-1.162-.336h-2.016v3.22h2.016Zm6.35 5.53V4.215h6.02v1.022h-4.844v3.29h4.676v1.022h-4.676v3.416h4.844v1.022h-6.02Zm10.691 0h-1.176V4.215h3.556c.905 0 1.596.247 2.072.742.476.494.714 1.185.714 2.072 0 .793-.205 1.428-.616 1.904-.411.476-1.008.75-1.792.826l2.492 4.228h-1.316l-2.38-4.172h-1.554v4.172Zm2.352-5.166c.495 0 .877-.122 1.148-.364.28-.252.42-.607.42-1.064v-.728c0-.458-.14-.808-.42-1.05-.271-.252-.653-.378-1.148-.378h-2.352V8.82h2.352Z" fill="#678DE3"/><path d="M1215.57 522.287v-9.772h1.18v8.75h4.63v1.022h-5.81Zm12.04.168c-.6 0-1.12-.112-1.54-.336a2.94 2.94 0 0 1-1.07-.994c-.28-.429-.48-.957-.61-1.582-.14-.625-.2-1.339-.2-2.142 0-.793.06-1.503.2-2.128.13-.635.33-1.167.61-1.596.28-.429.64-.756 1.07-.98.42-.233.94-.35 1.54-.35.59 0 1.11.117 1.54.35.42.224.78.551 1.06.98.28.429.48.961.62 1.596.13.625.19 1.335.19 2.128 0 .803-.06 1.517-.19 2.142-.14.625-.34 1.153-.62 1.582-.28.429-.64.761-1.06.994-.43.224-.95.336-1.54.336Zm0-1.022c.39 0 .72-.075.99-.224.27-.159.49-.378.67-.658.18-.28.3-.616.38-1.008.08-.401.13-.849.13-1.344v-1.596c0-.485-.05-.929-.13-1.33s-.2-.742-.38-1.022-.4-.495-.67-.644c-.27-.159-.6-.238-.99-.238-.4 0-.73.079-1 .238-.27.149-.49.364-.67.644-.18.28-.31.621-.39 1.022-.08.401-.11.845-.11 1.33v1.596c0 .495.03.943.11 1.344.08.392.21.728.39 1.008.18.28.4.499.67.658.27.149.6.224 1 .224Zm9.83 1.022c-1.19 0-2.08-.434-2.67-1.302-.58-.868-.87-2.119-.87-3.752 0-1.633.29-2.884.87-3.752.59-.868 1.48-1.302 2.67-1.302.45 0 .84.061 1.16.182.33.121.61.285.84.49.24.205.43.439.59.7.16.252.3.509.42.77l-1.01.462a3.805 3.805 0 0 0-.29-.602 1.912 1.912 0 0 0-.41-.504 1.6 1.6 0 0 0-.54-.35 2.035 2.035 0 0 0-.76-.126c-.77 0-1.35.294-1.73.882-.38.588-.56 1.372-.56 2.352v1.596c0 .98.18 1.764.56 2.352.38.588.96.882 1.73.882.3 0 .55-.042.76-.126.21-.084.39-.196.54-.336.16-.149.3-.317.41-.504.11-.196.21-.401.29-.616l1.01.462a5.97 5.97 0 0 1-.42.784c-.16.252-.35.481-.59.686-.23.205-.51.369-.84.49-.32.121-.71.182-1.16.182Zm11.73-.168-.83-2.786h-3.43l-.82 2.786h-1.22l2.99-9.772h1.56l2.99 9.772h-1.24Zm-2.48-8.526h-.13l-1.37 4.718h2.87l-1.37-4.718Zm10.05-.224v8.75h-1.18v-8.75h-3.26v-1.022h7.7v1.022h-3.26Zm5.9 8.75v-.938h2.44v-7.896h-2.44v-.938h6.05v.938h-2.44v7.896h2.44v.938h-6.05Zm12.54.168c-.6 0-1.11-.112-1.54-.336a2.94 2.94 0 0 1-1.07-.994c-.28-.429-.48-.957-.61-1.582a10.56 10.56 0 0 1-.2-2.142c0-.793.07-1.503.2-2.128.13-.635.33-1.167.61-1.596.28-.429.64-.756 1.07-.98.43-.233.94-.35 1.54-.35.6 0 1.11.117 1.54.35a2.8 2.8 0 0 1 1.06.98c.28.429.49.961.62 1.596.13.625.19 1.335.19 2.128 0 .803-.06 1.517-.19 2.142s-.34 1.153-.62 1.582c-.28.429-.63.761-1.06.994-.43.224-.94.336-1.54.336Zm0-1.022c.39 0 .72-.075.99-.224.27-.159.5-.378.67-.658.18-.28.31-.616.38-1.008.09-.401.13-.849.13-1.344v-1.596c0-.485-.04-.929-.13-1.33-.07-.401-.2-.742-.38-1.022-.17-.28-.4-.495-.67-.644-.27-.159-.6-.238-.99-.238s-.73.079-1 .238c-.27.149-.49.364-.67.644-.18.28-.31.621-.39 1.022-.07.401-.11.845-.11 1.33v1.596c0 .495.04.943.11 1.344.08.392.21.728.39 1.008.18.28.4.499.67.658.27.149.61.224 1 .224Zm7.59-7.378h-.09v8.232h-1.07v-9.772h1.67l3.33 8.232h.1v-8.232h1.06v9.772h-1.66l-3.34-8.232Z" fill="#FF6B6B"/><path d="M173.843 46.83v8.75h-1.176v-8.75h-3.262v-1.022h7.7v1.022h-3.262Zm7.022-1.022v5.866c0 .476.014.901.042 1.274.028.374.103.696.224.966a1.3 1.3 0 0 0 .56.602c.262.14.621.21 1.078.21.458 0 .812-.07 1.064-.21.262-.14.453-.34.574-.602.122-.27.196-.592.224-.966.028-.373.042-.798.042-1.274v-5.866h1.176v5.586c0 .728-.037 1.363-.112 1.904-.065.542-.21.994-.434 1.358-.214.364-.527.64-.938.826-.401.178-.933.266-1.596.266-.662 0-1.199-.088-1.61-.266a2.129 2.129 0 0 1-.938-.826c-.214-.364-.359-.816-.434-1.358a16.19 16.19 0 0 1-.098-1.904v-5.586h1.176Zm9.655 9.772h-1.176v-9.772h3.556c.905 0 1.596.248 2.072.742.476.495.714 1.186.714 2.072 0 .794-.206 1.428-.616 1.904-.411.476-1.008.752-1.792.826l2.492 4.228h-1.316l-2.38-4.172h-1.554v4.172Zm2.352-5.166c.494 0 .877-.121 1.148-.364.28-.252.42-.606.42-1.064v-.728c0-.457-.14-.807-.42-1.05-.271-.252-.654-.378-1.148-.378h-2.352v3.584h2.352Zm5.986 5.166v-9.772h6.16v1.022h-4.984v3.29h4.564v1.022h-4.564v4.438h-1.176Z" fill="#91E17E"/><path d="M721.729 63.212h-.002c-10.695 0-19.365 8.67-19.365 19.365M821.883 63.212h.001c10.695 0 19.365-8.67 19.365-19.364M702.362 148.866V82.577M841.249 43.848V20.522M721.728 63.212h100.154" stroke="#678DE3" stroke-width=".9"/><path d="M351.023 50.08h.002c10.695 0 19.365 8.67 19.365 19.364M370.39 148.866V69.444M351.024 50.08H218.953" stroke="#91E17E" stroke-width=".9"/><path d="M1232.02 411.251c10.7 0 19.37 8.67 19.37 19.365M1187.61 411.251c-10.69 0-19.36-8.669-19.36-19.364M1251.39 496.905v-66.289M1168.25 391.887v-23.326M1232.02 411.251h-44.41" stroke="#FF6B6B" stroke-width=".9"/><circle cx="1162.85" cy="339.973" r="16.864" fill="#FF6B6B"/></svg>