<svg width="81" height="40" viewBox="0 0 81 40" fill="none" xmlns="http://www.w3.org/2000/svg">
<path d="M39.5756 35.8755C39.5756 36.8943 39.227 37.7792 38.5299 38.5299C37.8328 39.227 36.948 39.5756 35.8755 39.5756C34.8566 39.5756 33.9717 39.227 33.221 38.5299C32.5239 37.7792 32.1753 36.8943 32.1753 35.8755V11.744C32.1753 10.5106 31.7463 9.49171 30.8883 8.68733C30.0839 7.82932 29.065 7.40032 27.8316 7.40032C26.6519 7.40032 25.633 7.82932 24.775 8.68733C23.917 9.54534 23.488 10.5642 23.488 11.744V35.8755C23.488 36.8943 23.1394 37.7792 22.4423 38.5299C21.7451 39.227 20.8603 39.5756 19.7878 39.5756C18.7689 39.5756 17.8841 39.227 17.1333 38.5299C16.4362 37.7792 16.0876 36.8943 16.0876 35.8755V11.744C16.0876 10.5106 15.6586 9.49171 14.8006 8.68733C13.9963 7.82932 12.9774 7.40032 11.744 7.40032C10.5642 7.40032 9.54534 7.82932 8.68733 8.68733C7.82932 9.54534 7.40032 10.5642 7.40032 11.744V35.8755C7.40032 36.8943 7.05175 37.7792 6.35462 38.5299C5.65749 39.227 4.77267 39.5756 3.70016 39.5756C2.68127 39.5756 1.79645 39.227 1.0457 38.5299C0.348566 37.7792 0 36.8943 0 35.8755V11.744C0 10.7251 0.348566 9.86709 1.0457 9.16996C1.79645 8.4192 2.68127 8.04382 3.70016 8.04382C4.87992 8.04382 5.8988 7.61482 6.75681 6.75681C7.61482 5.8988 8.04382 4.87992 8.04382 3.70016C8.04382 2.68127 8.39239 1.82327 9.08952 1.12614C9.84028 0.375378 10.7251 0 11.744 0C12.8165 0 13.7013 0.348567 14.3984 1.0457C15.0956 1.74283 15.4441 2.62765 15.4441 3.70016C15.4441 4.87992 15.8731 5.8988 16.7312 6.75681C17.5892 7.61482 18.608 8.04382 19.7878 8.04382C20.9676 8.04382 21.9864 7.61482 22.8445 6.75681C23.7025 5.8988 24.1315 4.87992 24.1315 3.70016C24.1315 2.68127 24.48 1.82327 25.1772 1.12614C25.9279 0.375378 26.8127 0 27.8316 0C28.9041 0 29.789 0.348567 30.4861 1.0457C31.1832 1.74283 31.5318 2.62765 31.5318 3.70016C31.5318 4.87992 31.9608 5.8988 32.8188 6.75681C33.6768 7.61482 34.6957 8.04382 35.8755 8.04382C36.948 8.04382 37.8328 8.39239 38.5299 9.08952C39.227 9.78665 39.5756 10.6715 39.5756 11.744V35.8755Z" fill="#3E3E3E"/>
<circle cx="61.9419" cy="19.7876" r="18.3662" fill="#678DE3"/>
</svg>
