<svg width="40" height="40" viewBox="0 0 40 40" fill="none" xmlns="http://www.w3.org/2000/svg">
<circle cx="20.0796" cy="19.6465" r="19.3662" fill="#678DE3"/>
<path d="M31.5228 28.9499C31.5228 29.5391 31.3212 30.0508 30.9181 30.485C30.5149 30.8881 30.0032 31.0897 29.383 31.0897C28.7938 31.0897 28.2821 30.8881 27.8479 30.485C27.4448 30.0508 27.2432 29.5391 27.2432 28.9499V14.9947C27.2432 14.2814 26.9951 13.6922 26.4989 13.227C26.0337 12.7308 25.4445 12.4827 24.7313 12.4827C24.049 12.4827 23.4598 12.7308 22.9636 13.227C22.4674 13.7232 22.2193 14.3124 22.2193 14.9947V28.9499C22.2193 29.5391 22.0177 30.0508 21.6146 30.485C21.2114 30.8881 20.6997 31.0897 20.0795 31.0897C19.4903 31.0897 18.9786 30.8881 18.5444 30.485C18.1413 30.0508 17.9397 29.5391 17.9397 28.9499V14.9947C17.9397 14.2814 17.6916 13.6922 17.1954 13.227C16.7303 12.7308 16.141 12.4827 15.4278 12.4827C14.7455 12.4827 14.1563 12.7308 13.6601 13.227C13.1639 13.7232 12.9158 14.3124 12.9158 14.9947V28.9499C12.9158 29.5391 12.7143 30.0508 12.3111 30.485C11.908 30.8881 11.3963 31.0897 10.776 31.0897C10.1868 31.0897 9.67512 30.8881 9.24096 30.485C8.83781 30.0508 8.63623 29.5391 8.63623 28.9499V14.9947C8.63623 14.4054 8.83781 13.9093 9.24096 13.5061C9.67512 13.0719 10.1868 12.8549 10.776 12.8549C11.4583 12.8549 12.0475 12.6068 12.5437 12.1106C13.0399 11.6144 13.288 11.0252 13.288 10.3429C13.288 9.7537 13.4895 9.25752 13.8927 8.85437C14.3269 8.42021 14.8386 8.20312 15.4278 8.20312C16.048 8.20312 16.5597 8.4047 16.9628 8.80785C17.366 9.211 17.5676 9.72269 17.5676 10.3429C17.5676 11.0252 17.8157 11.6144 18.3118 12.1106C18.808 12.6068 19.3973 12.8549 20.0795 12.8549C20.7618 12.8549 21.351 12.6068 21.8472 12.1106C22.3434 11.6144 22.5914 11.0252 22.5914 10.3429C22.5914 9.7537 22.793 9.25752 23.1962 8.85437C23.6303 8.42021 24.142 8.20312 24.7313 8.20312C25.3515 8.20312 25.8632 8.4047 26.2663 8.80785C26.6695 9.211 26.8711 9.72269 26.8711 10.3429C26.8711 11.0252 27.1191 11.6144 27.6153 12.1106C28.1115 12.6068 28.7007 12.8549 29.383 12.8549C30.0032 12.8549 30.5149 13.0564 30.9181 13.4596C31.3212 13.8627 31.5228 14.3744 31.5228 14.9947V28.9499Z" fill="#3E3E3E"/>
</svg>
