<svg width="39" height="39" viewBox="0 0 39 39" fill="none" xmlns="http://www.w3.org/2000/svg">
<circle cx="3.26338" cy="3.26338" r="3.26338" transform="matrix(-1 0 0 1 38.5391 0.369141)" fill="#678DE3"/>
<path d="M38.9077 35.27C38.9077 36.2717 38.565 37.1416 37.8797 37.8797C37.1943 38.565 36.3244 38.9077 35.27 38.9077C34.2683 38.9077 33.3984 38.565 32.6603 37.8797C31.975 37.1416 31.6323 36.2717 31.6323 35.27V11.5458C31.6323 10.3332 31.2105 9.33153 30.367 8.54072C29.5762 7.69719 28.5745 7.27543 27.3619 7.27543C26.2021 7.27543 25.2004 7.69719 24.3569 8.54072C23.5133 9.38425 23.0916 10.3859 23.0916 11.5458V35.27C23.0916 36.2717 22.7489 37.1416 22.0635 37.8797C21.3782 38.565 20.5083 38.9077 19.4539 38.9077C18.4522 38.9077 17.5823 38.565 16.8442 37.8797C16.1588 37.1416 15.8161 36.2717 15.8161 35.27V11.5458C15.8161 10.3332 15.3944 9.33153 14.5509 8.54072C13.76 7.69719 12.7584 7.27543 11.5458 7.27543C10.3859 7.27543 9.38425 7.69719 8.54072 8.54072C7.69719 9.38425 7.27543 10.3859 7.27543 11.5458V35.27C7.27543 36.2717 6.93274 37.1416 6.24738 37.8797C5.56201 38.565 4.69212 38.9077 3.63771 38.9077C2.63602 38.9077 1.76614 38.565 1.02805 37.8797C0.342683 37.1416 0 36.2717 0 35.27V11.5458C0 10.5441 0.342683 9.70057 1.02805 9.01521C1.76614 8.27712 2.63602 7.90807 3.63771 7.90807C4.79756 7.90807 5.79925 7.48631 6.64278 6.64278C7.48631 5.79926 7.90807 4.79756 7.90807 3.63771C7.90807 2.63602 8.25076 1.7925 8.93612 1.10713C9.67421 0.369046 10.5441 0 11.5458 0C12.6002 0 13.4701 0.342683 14.1554 1.02805C14.8408 1.71342 15.1835 2.5833 15.1835 3.63771C15.1835 4.79756 15.6053 5.79926 16.4488 6.64278C17.2923 7.48631 18.294 7.90807 19.4539 7.90807C20.6137 7.90807 21.6154 7.48631 22.4589 6.64278C23.3025 5.79926 23.7242 4.79756 23.7242 3.63771C23.7242 2.63602 24.0669 1.7925 24.7523 1.10713C25.4904 0.369046 26.3602 0 27.3619 0C28.4163 0 29.2862 0.342683 29.9716 1.02805C30.657 1.71342 30.9996 2.5833 30.9996 3.63771C30.9996 4.79756 31.4214 5.79926 32.2649 6.64278C33.1085 7.48631 34.1102 7.90807 35.27 7.90807C36.3244 7.90807 37.1943 8.25076 37.8797 8.93612C38.565 9.62149 38.9077 10.4914 38.9077 11.5458V35.27Z" fill="#3E3E3E"/>
</svg>
