<svg width="128" height="46" viewBox="0 0 128 46" fill="none" xmlns="http://www.w3.org/2000/svg">
<path d="M116.968 22.0649C116.357 22.0649 115.828 21.8561 115.378 21.4387C114.961 20.9891 114.752 20.4593 114.752 19.8492C114.752 19.1106 114.495 18.5005 113.981 18.0188C113.5 17.505 112.889 17.2481 112.151 17.2481C111.444 17.2481 110.834 17.505 110.32 18.0188C109.807 18.5326 109.55 19.1427 109.55 19.8492V29.4826C109.55 30.1891 109.807 30.7992 110.32 31.313C110.834 31.8268 111.444 32.0837 112.151 32.0837H116.968C117.674 32.0837 118.284 31.8268 118.798 31.313C119.312 30.7992 119.569 30.1891 119.569 29.4826V10.2157C119.569 9.60558 119.777 9.09179 120.195 8.67434C120.644 8.22478 121.174 8 121.784 8C122.427 8 122.956 8.20873 123.374 8.62618C123.791 9.04363 124 9.57347 124 10.2157V29.4826C124 30.0927 123.775 30.6226 123.326 31.0721C122.908 31.4896 122.394 31.6983 121.784 31.6983C121.078 31.6983 120.468 31.9552 119.954 32.469C119.44 32.9828 119.183 33.5929 119.183 34.2994C119.183 34.9095 118.958 35.4393 118.509 35.8889C118.091 36.3063 117.578 36.515 116.968 36.515H112.151C111.541 36.515 111.011 36.3063 110.561 35.8889C110.144 35.4393 109.935 34.9095 109.935 34.2994C109.935 33.5608 109.678 32.9507 109.164 32.469C108.683 31.9552 108.073 31.6983 107.334 31.6983C106.724 31.6983 106.194 31.4896 105.745 31.0721C105.327 30.6226 105.118 30.0927 105.118 29.4826V19.8492C105.118 19.239 105.327 18.7253 105.745 18.3078C106.194 17.8582 106.724 17.6335 107.334 17.6335C108.073 17.6335 108.683 17.3766 109.164 16.8628C109.678 16.349 109.935 15.7389 109.935 15.0324C109.935 14.4223 110.144 13.9085 110.561 13.4911C111.011 13.0415 111.541 12.8167 112.151 12.8167C112.793 12.8167 113.323 13.0255 113.74 13.4429C114.158 13.8604 114.367 14.3902 114.367 15.0324C114.367 15.7389 114.623 16.349 115.137 16.8628C115.651 17.3766 116.261 17.6335 116.968 17.6335C117.61 17.6335 118.14 17.8422 118.557 18.2596C118.975 18.6771 119.183 19.2069 119.183 19.8492C119.183 20.4593 118.975 20.9891 118.557 21.4387C118.14 21.8561 117.61 22.0649 116.968 22.0649Z" fill="#020617"/>
<path d="M99.9211 24.6658C99.9211 25.2759 99.7123 25.8058 99.2949 26.2553C98.8774 26.6728 98.3476 26.8815 97.7054 26.8815H92.8886C92.2785 26.8815 91.7487 26.6728 91.2991 26.2553C90.8817 25.8058 90.6729 25.2759 90.6729 24.6658C90.6729 24.0557 90.8817 23.5419 91.2991 23.1245C91.7487 22.6749 92.2785 22.4501 92.8886 22.4501H97.7054C98.4439 22.4501 99.054 22.1932 99.5357 21.6794C100.049 21.1656 100.306 20.5555 100.306 19.8491C100.306 19.1105 100.049 18.5004 99.5357 18.0187C99.054 17.5049 98.4439 17.248 97.7054 17.248H92.8886C92.1822 17.248 91.5721 17.5049 91.0583 18.0187C90.5445 18.5325 90.2876 19.1426 90.2876 19.8491V29.4825C90.2876 30.189 90.5445 30.7991 91.0583 31.3129C91.5721 31.8267 92.1822 32.0836 92.8886 32.0836H97.7054C98.4118 32.0836 99.0219 31.8267 99.5357 31.3129C100.049 30.7991 100.306 30.189 100.306 29.4825C100.306 28.8724 100.515 28.3586 100.933 27.9412C101.382 27.4916 101.912 27.2668 102.522 27.2668C103.164 27.2668 103.694 27.4756 104.112 27.893C104.529 28.3105 104.738 28.8403 104.738 29.4825C104.738 30.0927 104.513 30.6225 104.063 31.0721C103.646 31.4895 103.132 31.6982 102.522 31.6982C101.816 31.6982 101.206 31.9551 100.692 32.4689C100.178 32.9827 99.9211 33.5928 99.9211 34.2993C99.9211 34.9094 99.6963 35.4392 99.2467 35.8888C98.8293 36.3062 98.3155 36.515 97.7054 36.515H92.8886C92.2785 36.515 91.7487 36.3062 91.2991 35.8888C90.8817 35.4392 90.6729 34.9094 90.6729 34.2993C90.6729 33.5607 90.416 32.9506 89.9023 32.4689C89.4206 31.9551 88.8105 31.6982 88.0719 31.6982C87.4618 31.6982 86.9319 31.4895 86.4824 31.0721C86.0649 30.6225 85.8562 30.0927 85.8562 29.4825V19.8491C85.8562 19.239 86.0649 18.7252 86.4824 18.3077C86.9319 17.8582 87.4618 17.6334 88.0719 17.6334C88.8105 17.6334 89.4206 17.3765 89.9023 16.8627C90.416 16.3489 90.6729 15.7388 90.6729 15.0323C90.6729 14.4222 90.8817 13.9084 91.2991 13.491C91.7487 13.0414 92.2785 12.8167 92.8886 12.8167H97.7054C98.3476 12.8167 98.8774 13.0254 99.2949 13.4428C99.7123 13.8603 99.9211 14.3901 99.9211 15.0323C99.9211 15.7388 100.178 16.3489 100.692 16.8627C101.206 17.3765 101.816 17.6334 102.522 17.6334C103.164 17.6334 103.694 17.8421 104.112 18.2596C104.529 18.677 104.738 19.2068 104.738 19.8491C104.738 20.4592 104.529 20.989 104.112 21.4386C103.694 21.856 103.164 22.0648 102.522 22.0648C101.816 22.0648 101.206 22.3217 100.692 22.8354C100.178 23.3492 99.9211 23.9594 99.9211 24.6658Z" fill="#020617"/>
<path d="M73.6264 27.2668C74.2686 27.2668 74.7985 27.4756 75.2159 27.893C75.6334 28.3105 75.8421 28.8403 75.8421 29.4825C75.8421 30.189 76.099 30.7991 76.6128 31.3129C77.1266 31.8267 77.7367 32.0836 78.4432 32.0836C79.1496 32.0836 79.7597 31.8267 80.2735 31.3129C80.7873 30.7991 81.0442 30.189 81.0442 29.4825V19.8491C81.0442 19.1105 80.7873 18.5004 80.2735 18.0187C79.7918 17.5049 79.1817 17.248 78.4432 17.248H73.6264C72.92 17.248 72.3098 17.5049 71.7961 18.0187C71.2823 18.5325 71.0254 19.1426 71.0254 19.8491V39.116C71.0254 39.7582 70.8167 40.2881 70.3992 40.7055C69.9818 41.123 69.4519 41.3317 68.8097 41.3317C68.1996 41.3317 67.6697 41.1069 67.2202 40.6574C66.8027 40.2399 66.594 39.7261 66.594 39.116V19.8491C66.594 19.239 66.8027 18.7252 67.2202 18.3077C67.6697 17.8582 68.1996 17.6334 68.8097 17.6334C69.5483 17.6334 70.1584 17.3765 70.64 16.8627C71.1538 16.3489 71.4107 15.7388 71.4107 15.0323C71.4107 14.4222 71.6194 13.9084 72.0369 13.491C72.4865 13.0414 73.0163 12.8167 73.6264 12.8167H78.4432C79.0854 12.8167 79.6152 13.0254 80.0327 13.4428C80.4501 13.8603 80.6588 14.3901 80.6588 15.0323C80.6588 15.7388 80.9157 16.3489 81.4295 16.8627C81.9433 17.3765 82.5534 17.6334 83.2599 17.6334C83.9021 17.6334 84.432 17.8421 84.8494 18.2596C85.2669 18.677 85.4756 19.2068 85.4756 19.8491V29.4825C85.4756 30.0927 85.2508 30.6225 84.8012 31.0721C84.3838 31.4895 83.87 31.6982 83.2599 31.6982C82.5534 31.6982 81.9433 31.9551 81.4295 32.4689C80.9157 32.9506 80.6588 33.5607 80.6588 34.2993C80.6588 34.9094 80.4341 35.4392 79.9845 35.8888C79.5671 36.3062 79.0533 36.515 78.4432 36.515C77.833 36.515 77.3032 36.3062 76.8536 35.8888C76.4362 35.4392 76.2275 34.9094 76.2275 34.2993C76.2275 33.5607 75.9706 32.9506 75.4568 32.4689C74.9751 31.9551 74.365 31.6982 73.6264 31.6982C73.0163 31.6982 72.4865 31.4895 72.0369 31.0721C71.6194 30.6225 71.4107 30.0927 71.4107 29.4825C71.4107 28.8724 71.6194 28.3586 72.0369 27.9412C72.4865 27.4916 73.0163 27.2668 73.6264 27.2668Z" fill="#020617"/>
<path d="M54.3642 27.2668C55.0064 27.2668 55.5363 27.4756 55.9537 27.893C56.3712 28.3105 56.5799 28.8403 56.5799 29.4825C56.5799 30.189 56.8368 30.7991 57.3506 31.3129C57.8644 31.8267 58.4745 32.0836 59.1809 32.0836C59.8874 32.0836 60.4975 31.8267 61.0113 31.3129C61.5251 30.7991 61.782 30.189 61.782 29.4825V19.8491C61.782 19.1105 61.5251 18.5004 61.0113 18.0187C60.5296 17.5049 59.9195 17.248 59.1809 17.248H54.3642C53.6578 17.248 53.0476 17.5049 52.5339 18.0187C52.0201 18.5325 51.7632 19.1426 51.7632 19.8491V39.116C51.7632 39.7582 51.5545 40.2881 51.137 40.7055C50.7196 41.123 50.1897 41.3317 49.5475 41.3317C48.9374 41.3317 48.4075 41.1069 47.958 40.6574C47.5405 40.2399 47.3318 39.7261 47.3318 39.116V19.8491C47.3318 19.239 47.5405 18.7252 47.958 18.3077C48.4075 17.8582 48.9374 17.6334 49.5475 17.6334C50.286 17.6334 50.8962 17.3765 51.3778 16.8627C51.8916 16.3489 52.1485 15.7388 52.1485 15.0323C52.1485 14.4222 52.3572 13.9084 52.7747 13.491C53.2243 13.0414 53.7541 12.8167 54.3642 12.8167H59.1809C59.8232 12.8167 60.353 13.0254 60.7705 13.4428C61.1879 13.8603 61.3966 14.3901 61.3966 15.0323C61.3966 15.7388 61.6535 16.3489 62.1673 16.8627C62.6811 17.3765 63.2912 17.6334 63.9977 17.6334C64.6399 17.6334 65.1697 17.8421 65.5872 18.2596C66.0046 18.677 66.2134 19.2068 66.2134 19.8491V29.4825C66.2134 30.0927 65.9886 30.6225 65.539 31.0721C65.1216 31.4895 64.6078 31.6982 63.9977 31.6982C63.2912 31.6982 62.6811 31.9551 62.1673 32.4689C61.6535 32.9506 61.3966 33.5607 61.3966 34.2993C61.3966 34.9094 61.1719 35.4392 60.7223 35.8888C60.3048 36.3062 59.7911 36.515 59.1809 36.515C58.5708 36.515 58.041 36.3062 57.5914 35.8888C57.174 35.4392 56.9652 34.9094 56.9652 34.2993C56.9652 33.5607 56.7084 32.9506 56.1946 32.4689C55.7129 31.9551 55.1028 31.6982 54.3642 31.6982C53.7541 31.6982 53.2243 31.4895 52.7747 31.0721C52.3572 30.6225 52.1485 30.0927 52.1485 29.4825C52.1485 28.8724 52.3572 28.3586 52.7747 27.9412C53.2243 27.4916 53.7541 27.2668 54.3642 27.2668Z" fill="#020617"/>
<path d="M32.8863 24.6658C32.8863 24.0557 33.095 23.5419 33.5125 23.1245C33.962 22.6749 34.4919 22.4501 35.102 22.4501H39.9187C40.561 22.4501 41.0908 22.6588 41.5083 23.0763C41.9257 23.4937 42.1344 24.0236 42.1344 24.6658C42.1344 25.2759 41.9257 25.8058 41.5083 26.2553C41.0908 26.6728 40.561 26.8815 39.9187 26.8815H35.102C34.3956 26.8815 33.7854 27.1384 33.2716 27.6522C32.7579 28.166 32.501 28.7761 32.501 29.4825C32.501 30.189 32.7579 30.7991 33.2716 31.3129C33.7854 31.8267 34.3956 32.0836 35.102 32.0836H39.9187C40.6252 32.0836 41.2353 31.8267 41.7491 31.3129C42.2629 30.7991 42.5198 30.189 42.5198 29.4825V19.8491C42.5198 19.1105 42.2629 18.5004 41.7491 18.0187C41.2674 17.5049 40.6573 17.248 39.9187 17.248H35.102C34.3956 17.248 33.7854 17.5049 33.2716 18.0187C32.7579 18.5325 32.501 19.1426 32.501 19.8491C32.501 20.4592 32.2922 20.989 31.8748 21.4386C31.4573 21.856 30.9275 22.0648 30.2853 22.0648C29.6752 22.0648 29.1453 21.856 28.6958 21.4386C28.2783 20.989 28.0696 20.4592 28.0696 19.8491C28.0696 19.239 28.2783 18.7252 28.6958 18.3077C29.1453 17.8582 29.6752 17.6334 30.2853 17.6334C31.0238 17.6334 31.634 17.3765 32.1156 16.8627C32.6294 16.3489 32.8863 15.7388 32.8863 15.0323C32.8863 14.4222 33.095 13.9084 33.5125 13.491C33.962 13.0414 34.4919 12.8167 35.102 12.8167H39.9187C40.561 12.8167 41.0908 13.0254 41.5083 13.4428C41.9257 13.8603 42.1344 14.3901 42.1344 15.0323C42.1344 15.7388 42.3913 16.3489 42.9051 16.8627C43.4189 17.3765 44.029 17.6334 44.7355 17.6334C45.3777 17.6334 45.9075 17.8421 46.325 18.2596C46.7424 18.677 46.9512 19.2068 46.9512 19.8491V29.4825C46.9512 30.0927 46.7264 30.6225 46.2768 31.0721C45.8594 31.4895 45.3456 31.6982 44.7355 31.6982C44.029 31.6982 43.4189 31.9551 42.9051 32.4689C42.3913 32.9506 42.1344 33.5607 42.1344 34.2993C42.1344 34.9094 41.9097 35.4392 41.4601 35.8888C41.0426 36.3062 40.5289 36.515 39.9187 36.515H35.102C34.4919 36.515 33.962 36.3062 33.5125 35.8888C33.095 35.4392 32.8863 34.9094 32.8863 34.2993C32.8863 33.5607 32.6294 32.9506 32.1156 32.4689C31.634 31.9551 31.0238 31.6982 30.2853 31.6982C29.6752 31.6982 29.1453 31.4895 28.6958 31.0721C28.2783 30.6225 28.0696 30.0927 28.0696 29.4825C28.0696 28.8724 28.2783 28.3586 28.6958 27.9412C29.1453 27.4916 29.6752 27.2668 30.2853 27.2668C30.9917 27.2668 31.6018 27.0099 32.1156 26.4962C32.6294 25.9824 32.8863 25.3723 32.8863 24.6658Z" fill="#020617"/>
<path d="M27.6983 34.2994C27.6983 34.9095 27.4896 35.4393 27.0721 35.8889C26.6547 36.3063 26.1248 36.515 25.4826 36.515C24.8725 36.515 24.3427 36.3063 23.8931 35.8889C23.4756 35.4393 23.2669 34.9095 23.2669 34.2994V15.0324C23.2669 14.2939 23.01 13.6837 22.4962 13.2021C22.0146 12.6883 21.4045 12.4314 20.6659 12.4314C19.9594 12.4314 19.3493 12.6883 18.8355 13.2021C18.3217 13.7159 18.0649 14.326 18.0649 15.0324V34.2994C18.0649 34.9095 17.8561 35.4393 17.4387 35.8889C17.0212 36.3063 16.4914 36.515 15.8492 36.515C15.239 36.515 14.7092 36.3063 14.2596 35.8889C13.8422 35.4393 13.6335 34.9095 13.6335 34.2994V15.0324C13.6335 14.2939 13.3766 13.6837 12.8628 13.2021C12.3811 12.6883 11.771 12.4314 11.0324 12.4314C10.326 12.4314 9.71585 12.6883 9.20207 13.2021C8.68828 13.7159 8.43139 14.326 8.43139 15.0324V34.2994C8.43139 34.9095 8.22267 35.4393 7.80522 35.8889C7.38777 36.3063 6.85793 36.515 6.2157 36.515C5.60558 36.515 5.07574 36.3063 4.62617 35.8889C4.20873 35.4393 4 34.9095 4 34.2994V15.0324C4 14.4223 4.20873 13.9085 4.62617 13.4911C5.07574 13.0415 5.60558 12.8167 6.2157 12.8167C6.92215 12.8167 7.53227 12.5598 8.04605 12.0461C8.55984 11.5323 8.81673 10.9222 8.81673 10.2157C8.81673 9.60558 9.02546 9.09179 9.44291 8.67434C9.89247 8.22478 10.4223 8 11.0324 8C11.6747 8 12.2045 8.20873 12.6219 8.62618C13.0394 9.04363 13.2481 9.57347 13.2481 10.2157C13.2481 10.9222 13.505 11.5323 14.0188 12.0461C14.5326 12.5598 15.1427 12.8167 15.8492 12.8167C16.5556 12.8167 17.1657 12.5598 17.6795 12.0461C18.1933 11.5323 18.4502 10.9222 18.4502 10.2157C18.4502 9.60558 18.6589 9.09179 19.0764 8.67434C19.5259 8.22478 20.0558 8 20.6659 8C21.3081 8 21.838 8.20873 22.2554 8.62618C22.6729 9.04363 22.8816 9.57347 22.8816 10.2157C22.8816 10.9222 23.1385 11.5323 23.6523 12.0461C24.166 12.5598 24.7762 12.8167 25.4826 12.8167C26.1248 12.8167 26.6547 13.0255 27.0721 13.4429C27.4896 13.8604 27.6983 14.3902 27.6983 15.0324V34.2994Z" fill="#020617"/>
</svg>
