<svg width="86" height="24" viewBox="0 0 86 24" fill="none" xmlns="http://www.w3.org/2000/svg">
<path d="M80.9602 10.1272C80.5229 10.1272 80.1432 9.97688 79.821 9.6763C79.5218 9.3526 79.3722 8.9711 79.3722 8.53179C79.3722 8 79.1881 7.56069 78.8199 7.21387C78.4747 6.84393 78.0375 6.65896 77.5082 6.65896C77.0019 6.65896 76.5646 6.84393 76.1964 7.21387C75.8282 7.58382 75.6441 8.02312 75.6441 8.53179V15.4682C75.6441 15.9769 75.8282 16.4162 76.1964 16.7861C76.5646 17.1561 77.0019 17.341 77.5082 17.341H80.9602C81.4664 17.341 81.9037 17.1561 82.2719 16.7861C82.6401 16.4162 82.8242 15.9769 82.8242 15.4682V1.59538C82.8242 1.15607 82.9738 0.786127 83.273 0.485548C83.5952 0.161849 83.9749 0 84.4121 0C84.8724 0 85.2521 0.150289 85.5513 0.450867C85.8505 0.751445 86.0001 1.13295 86.0001 1.59538V15.4682C86.0001 15.9075 85.839 16.289 85.5168 16.6127C85.2176 16.9133 84.8494 17.0636 84.4121 17.0636C83.9059 17.0636 83.4686 17.2486 83.1004 17.6185C82.7322 17.9884 82.5481 18.4277 82.5481 18.9364C82.5481 19.3757 82.387 19.7572 82.0648 20.0809C81.7656 20.3815 81.3974 20.5318 80.9602 20.5318H77.5082C77.0709 20.5318 76.6912 20.3815 76.369 20.0809C76.0698 19.7572 75.9203 19.3757 75.9203 18.9364C75.9203 18.4046 75.7361 17.9653 75.3679 17.6185C75.0227 17.2486 74.5855 17.0636 74.0562 17.0636C73.6189 17.0636 73.2392 16.9133 72.917 16.6127C72.6178 16.289 72.4683 15.9075 72.4683 15.4682V8.53179C72.4683 8.09249 72.6178 7.72254 72.917 7.42197C73.2392 7.09827 73.6189 6.93642 74.0562 6.93642C74.5855 6.93642 75.0227 6.75145 75.3679 6.3815C75.7361 6.01156 75.9203 5.57226 75.9203 5.06358C75.9203 4.62428 76.0698 4.25434 76.369 3.95376C76.6912 3.63006 77.0709 3.46821 77.5082 3.46821C77.9684 3.46821 78.3481 3.6185 78.6473 3.91908C78.9465 4.21965 79.0961 4.60116 79.0961 5.06358C79.0961 5.57226 79.2802 6.01156 79.6484 6.3815C80.0166 6.75145 80.4539 6.93642 80.9602 6.93642C81.4204 6.93642 81.8001 7.0867 82.0993 7.38728C82.3985 7.68786 82.5481 8.06936 82.5481 8.53179C82.5481 8.9711 82.3985 9.3526 82.0993 9.6763C81.8001 9.97688 81.4204 10.1272 80.9602 10.1272Z" fill="black"/>
<path d="M68.7434 11.9996C68.7434 12.4389 68.5938 12.8204 68.2946 13.1441C67.9955 13.4447 67.6157 13.5949 67.1555 13.5949H63.7035C63.2662 13.5949 62.8865 13.4447 62.5643 13.1441C62.2651 12.8204 62.1156 12.4389 62.1156 11.9996C62.1156 11.5603 62.2651 11.1903 62.5643 10.8897C62.8865 10.566 63.2662 10.4042 63.7035 10.4042H67.1555C67.6848 10.4042 68.122 10.2192 68.4672 9.84928C68.8354 9.47933 69.0195 9.04003 69.0195 8.53136C69.0195 7.99957 68.8354 7.56026 68.4672 7.21344C68.122 6.8435 67.6848 6.65853 67.1555 6.65853H63.7035C63.1972 6.65853 62.7599 6.8435 62.3917 7.21344C62.0235 7.58338 61.8394 8.02269 61.8394 8.53136V15.4678C61.8394 15.9764 62.0235 16.4158 62.3917 16.7857C62.7599 17.1556 63.1972 17.3406 63.7035 17.3406H67.1555C67.6618 17.3406 68.099 17.1556 68.4672 16.7857C68.8354 16.4158 69.0195 15.9764 69.0195 15.4678C69.0195 15.0285 69.1691 14.6585 69.4683 14.3579C69.7905 14.0342 70.1702 13.8724 70.6075 13.8724C71.0677 13.8724 71.4474 14.0227 71.7466 14.3233C72.0458 14.6238 72.1954 15.0053 72.1954 15.4678C72.1954 15.9071 72.0343 16.2886 71.7121 16.6123C71.4129 16.9129 71.0447 17.0631 70.6075 17.0631C70.1012 17.0631 69.6639 17.2481 69.2957 17.6181C68.9275 17.988 68.7434 18.4273 68.7434 18.936C68.7434 19.3753 68.5823 19.7568 68.2601 20.0805C67.9609 20.3811 67.5927 20.5314 67.1555 20.5314H63.7035C63.2662 20.5314 62.8865 20.3811 62.5643 20.0805C62.2651 19.7568 62.1156 19.3753 62.1156 18.936C62.1156 18.4042 61.9315 17.9649 61.5632 17.6181C61.218 17.2481 60.7808 17.0631 60.2515 17.0631C59.8142 17.0631 59.4345 16.9129 59.1123 16.6123C58.8132 16.2886 58.6636 15.9071 58.6636 15.4678V8.53136C58.6636 8.09205 58.8132 7.72211 59.1123 7.42153C59.4345 7.09783 59.8142 6.93598 60.2515 6.93598C60.7808 6.93598 61.218 6.75101 61.5632 6.38107C61.9315 6.01113 62.1156 5.57182 62.1156 5.06315C62.1156 4.62384 62.2651 4.2539 62.5643 3.95332C62.8865 3.62962 63.2662 3.46777 63.7035 3.46777H67.1555C67.6157 3.46777 67.9955 3.61806 68.2946 3.91864C68.5938 4.21922 68.7434 4.60072 68.7434 5.06315C68.7434 5.57182 68.9275 6.01113 69.2957 6.38107C69.6639 6.75101 70.1012 6.93598 70.6075 6.93598C71.0677 6.93598 71.4474 7.08627 71.7466 7.38685C72.0458 7.68743 72.1954 8.06893 72.1954 8.53136C72.1954 8.97066 72.0458 9.35217 71.7466 9.67587C71.4474 9.97645 71.0677 10.1267 70.6075 10.1267C70.1012 10.1267 69.6639 10.3117 69.2957 10.6816C68.9275 11.0516 68.7434 11.4909 68.7434 11.9996Z" fill="black"/>
<path d="M49.899 13.8724C50.3593 13.8724 50.739 14.0227 51.0382 14.3233C51.3374 14.6238 51.487 15.0053 51.487 15.4678C51.487 15.9764 51.6711 16.4158 52.0393 16.7857C52.4075 17.1556 52.8447 17.3406 53.351 17.3406C53.8573 17.3406 54.2946 17.1556 54.6628 16.7857C55.031 16.4158 55.2151 15.9764 55.2151 15.4678V8.53136C55.2151 7.99957 55.031 7.56026 54.6628 7.21344C54.3176 6.8435 53.8803 6.65853 53.351 6.65853H49.899C49.3927 6.65853 48.9555 6.8435 48.5873 7.21344C48.2191 7.58338 48.035 8.02269 48.035 8.53136V22.4042C48.035 22.8666 47.8854 23.2481 47.5862 23.5487C47.287 23.8493 46.9073 23.9996 46.447 23.9996C46.0098 23.9996 45.6301 23.8377 45.3079 23.514C45.0087 23.2134 44.8591 22.8435 44.8591 22.4042V8.53136C44.8591 8.09205 45.0087 7.72211 45.3079 7.42153C45.6301 7.09783 46.0098 6.93598 46.447 6.93598C46.9764 6.93598 47.4136 6.75101 47.7588 6.38107C48.127 6.01113 48.3111 5.57182 48.3111 5.06315C48.3111 4.62384 48.4607 4.2539 48.7599 3.95332C49.0821 3.62962 49.4618 3.46777 49.899 3.46777H53.351C53.8113 3.46777 54.191 3.61806 54.4902 3.91864C54.7894 4.21922 54.9389 4.60072 54.9389 5.06315C54.9389 5.57182 55.1231 6.01113 55.4913 6.38107C55.8595 6.75101 56.2967 6.93598 56.803 6.93598C57.2633 6.93598 57.643 7.08627 57.9422 7.38685C58.2414 7.68743 58.3909 8.06893 58.3909 8.53136V15.4678C58.3909 15.9071 58.2298 16.2886 57.9077 16.6123C57.6085 16.9129 57.2403 17.0631 56.803 17.0631C56.2967 17.0631 55.8595 17.2481 55.4913 17.6181C55.1231 17.9649 54.9389 18.4042 54.9389 18.936C54.9389 19.3753 54.7779 19.7568 54.4557 20.0805C54.1565 20.3811 53.7883 20.5314 53.351 20.5314C52.9138 20.5314 52.5341 20.3811 52.2119 20.0805C51.9127 19.7568 51.7631 19.3753 51.7631 18.936C51.7631 18.4042 51.579 17.9649 51.2108 17.6181C50.8656 17.2481 50.4283 17.0631 49.899 17.0631C49.4618 17.0631 49.0821 16.9129 48.7599 16.6123C48.4607 16.2886 48.3111 15.9071 48.3111 15.4678C48.3111 15.0285 48.4607 14.6585 48.7599 14.3579C49.0821 14.0342 49.4618 13.8724 49.899 13.8724Z" fill="black"/>
<path d="M36.0944 13.8724C36.5546 13.8724 36.9343 14.0227 37.2335 14.3233C37.5327 14.6238 37.6823 15.0053 37.6823 15.4678C37.6823 15.9764 37.8664 16.4158 38.2346 16.7857C38.6028 17.1556 39.0401 17.3406 39.5463 17.3406C40.0526 17.3406 40.4899 17.1556 40.8581 16.7857C41.2263 16.4158 41.4104 15.9764 41.4104 15.4678V8.53136C41.4104 7.99957 41.2263 7.56026 40.8581 7.21344C40.5129 6.8435 40.0756 6.65853 39.5463 6.65853H36.0944C35.5881 6.65853 35.1508 6.8435 34.7826 7.21344C34.4144 7.58338 34.2303 8.02269 34.2303 8.53136V22.4042C34.2303 22.8666 34.0807 23.2481 33.7815 23.5487C33.4823 23.8493 33.1026 23.9996 32.6424 23.9996C32.2051 23.9996 31.8254 23.8377 31.5032 23.514C31.204 23.2134 31.0544 22.8435 31.0544 22.4042V8.53136C31.0544 8.09205 31.204 7.72211 31.5032 7.42153C31.8254 7.09783 32.2051 6.93598 32.6424 6.93598C33.1717 6.93598 33.6089 6.75101 33.9541 6.38107C34.3223 6.01113 34.5064 5.57182 34.5064 5.06315C34.5064 4.62384 34.656 4.2539 34.9552 3.95332C35.2774 3.62962 35.6571 3.46777 36.0944 3.46777H39.5463C40.0066 3.46777 40.3863 3.61806 40.6855 3.91864C40.9847 4.21922 41.1343 4.60072 41.1343 5.06315C41.1343 5.57182 41.3184 6.01113 41.6866 6.38107C42.0548 6.75101 42.492 6.93598 42.9983 6.93598C43.4586 6.93598 43.8383 7.08627 44.1375 7.38685C44.4367 7.68743 44.5862 8.06893 44.5862 8.53136V15.4678C44.5862 15.9071 44.4252 16.2886 44.103 16.6123C43.8038 16.9129 43.4356 17.0631 42.9983 17.0631C42.492 17.0631 42.0548 17.2481 41.6866 17.6181C41.3184 17.9649 41.1343 18.4042 41.1343 18.936C41.1343 19.3753 40.9732 19.7568 40.651 20.0805C40.3518 20.3811 39.9836 20.5314 39.5463 20.5314C39.1091 20.5314 38.7294 20.3811 38.4072 20.0805C38.108 19.7568 37.9584 19.3753 37.9584 18.936C37.9584 18.4042 37.7743 17.9649 37.4061 17.6181C37.0609 17.2481 36.6237 17.0631 36.0944 17.0631C35.6571 17.0631 35.2774 16.9129 34.9552 16.6123C34.656 16.2886 34.5064 15.9071 34.5064 15.4678C34.5064 15.0285 34.656 14.6585 34.9552 14.3579C35.2774 14.0342 35.6571 13.8724 36.0944 13.8724Z" fill="black"/>
<path d="M20.7017 11.9996C20.7017 11.5603 20.8513 11.1903 21.1505 10.8897C21.4727 10.566 21.8524 10.4042 22.2897 10.4042H25.7417C26.2019 10.4042 26.5816 10.5545 26.8808 10.8551C27.18 11.1556 27.3296 11.5371 27.3296 11.9996C27.3296 12.4389 27.18 12.8204 26.8808 13.1441C26.5816 13.4447 26.2019 13.5949 25.7417 13.5949H22.2897C21.7834 13.5949 21.3461 13.7799 20.9779 14.1499C20.6097 14.5198 20.4256 14.9591 20.4256 15.4678C20.4256 15.9764 20.6097 16.4158 20.9779 16.7857C21.3461 17.1556 21.7834 17.3406 22.2897 17.3406H25.7417C26.2479 17.3406 26.6852 17.1556 27.0534 16.7857C27.4216 16.4158 27.6057 15.9764 27.6057 15.4678V8.53136C27.6057 7.99957 27.4216 7.56026 27.0534 7.21344C26.7082 6.8435 26.271 6.65853 25.7417 6.65853H22.2897C21.7834 6.65853 21.3461 6.8435 20.9779 7.21344C20.6097 7.58338 20.4256 8.02269 20.4256 8.53136C20.4256 8.97066 20.276 9.35217 19.9768 9.67587C19.6777 9.97645 19.2979 10.1267 18.8377 10.1267C18.4004 10.1267 18.0207 9.97645 17.6985 9.67587C17.3993 9.35217 17.2498 8.97066 17.2498 8.53136C17.2498 8.09205 17.3993 7.72211 17.6985 7.42153C18.0207 7.09783 18.4004 6.93598 18.8377 6.93598C19.367 6.93598 19.8042 6.75101 20.1494 6.38107C20.5176 6.01113 20.7017 5.57182 20.7017 5.06315C20.7017 4.62384 20.8513 4.2539 21.1505 3.95332C21.4727 3.62962 21.8524 3.46777 22.2897 3.46777H25.7417C26.2019 3.46777 26.5816 3.61806 26.8808 3.91864C27.18 4.21922 27.3296 4.60072 27.3296 5.06315C27.3296 5.57182 27.5137 6.01113 27.8819 6.38107C28.2501 6.75101 28.6874 6.93598 29.1936 6.93598C29.6539 6.93598 30.0336 7.08627 30.3328 7.38685C30.632 7.68743 30.7816 8.06893 30.7816 8.53136V15.4678C30.7816 15.9071 30.6205 16.2886 30.2983 16.6123C29.9991 16.9129 29.6309 17.0631 29.1936 17.0631C28.6874 17.0631 28.2501 17.2481 27.8819 17.6181C27.5137 17.9649 27.3296 18.4042 27.3296 18.936C27.3296 19.3753 27.1685 19.7568 26.8463 20.0805C26.5471 20.3811 26.1789 20.5314 25.7417 20.5314H22.2897C21.8524 20.5314 21.4727 20.3811 21.1505 20.0805C20.8513 19.7568 20.7017 19.3753 20.7017 18.936C20.7017 18.4042 20.5176 17.9649 20.1494 17.6181C19.8042 17.2481 19.367 17.0631 18.8377 17.0631C18.4004 17.0631 18.0207 16.9129 17.6985 16.6123C17.3993 16.2886 17.2498 15.9071 17.2498 15.4678C17.2498 15.0285 17.3993 14.6585 17.6985 14.3579C18.0207 14.0342 18.4004 13.8724 18.8377 13.8724C19.344 13.8724 19.7812 13.6874 20.1494 13.3175C20.5176 12.9475 20.7017 12.5082 20.7017 11.9996Z" fill="black"/>
<path d="M16.9838 18.9364C16.9838 19.3757 16.8342 19.7572 16.535 20.0809C16.2359 20.3815 15.8561 20.5318 15.3959 20.5318C14.9586 20.5318 14.5789 20.3815 14.2567 20.0809C13.9575 19.7572 13.808 19.3757 13.808 18.9364V5.06358C13.808 4.53179 13.6239 4.09249 13.2556 3.74567C12.9104 3.37572 12.4732 3.19075 11.9439 3.19075C11.4376 3.19075 11.0003 3.37572 10.6321 3.74567C10.2639 4.11561 10.0798 4.55491 10.0798 5.06358V18.9364C10.0798 19.3757 9.93023 19.7572 9.63105 20.0809C9.33188 20.3815 8.95216 20.5318 8.4919 20.5318C8.05464 20.5318 7.67493 20.3815 7.35274 20.0809C7.05357 19.7572 6.90398 19.3757 6.90398 18.9364V5.06358C6.90398 4.53179 6.71987 4.09249 6.35166 3.74567C6.00646 3.37572 5.56921 3.19075 5.03991 3.19075C4.53361 3.19075 4.09636 3.37572 3.72815 3.74567C3.35994 4.11561 3.17583 4.55491 3.17583 5.06358V18.9364C3.17583 19.3757 3.02624 19.7572 2.72707 20.0809C2.4279 20.3815 2.04818 20.5318 1.58792 20.5318C1.15066 20.5318 0.770944 20.3815 0.448759 20.0809C0.149586 19.7572 0 19.3757 0 18.9364V5.06358C0 4.62428 0.149586 4.25434 0.448759 3.95376C0.770944 3.63006 1.15066 3.46821 1.58792 3.46821C2.09421 3.46821 2.53146 3.28324 2.89967 2.9133C3.26788 2.54335 3.45199 2.10405 3.45199 1.59538C3.45199 1.15607 3.60158 0.786127 3.90075 0.485548C4.22293 0.161849 4.60265 0 5.03991 0C5.50017 0 5.87989 0.150289 6.17906 0.450867C6.47824 0.751445 6.62782 1.13295 6.62782 1.59538C6.62782 2.10405 6.81193 2.54335 7.18014 2.9133C7.54835 3.28324 7.9856 3.46821 8.4919 3.46821C8.99819 3.46821 9.43544 3.28324 9.80365 2.9133C10.1719 2.54335 10.356 2.10405 10.356 1.59538C10.356 1.15607 10.5056 0.786127 10.8047 0.485548C11.1269 0.161849 11.5066 0 11.9439 0C12.4042 0 12.7839 0.150289 13.083 0.450867C13.3822 0.751445 13.5318 1.13295 13.5318 1.59538C13.5318 2.10405 13.7159 2.54335 14.0841 2.9133C14.4523 3.28324 14.8896 3.46821 15.3959 3.46821C15.8561 3.46821 16.2359 3.6185 16.535 3.91908C16.8342 4.21965 16.9838 4.60116 16.9838 5.06358V18.9364Z" fill="black"/>
<ellipse cx="36.0614" cy="18.8534" rx="1.39467" ry="1.40123" fill="#678DE3"/>
<ellipse cx="46.3519" cy="4.97837" rx="1.39467" ry="1.40122" fill="#678DE3"/>
<ellipse cx="18.8012" cy="4.99595" rx="1.39467" ry="1.40122" fill="#78D063"/>
<ellipse cx="70.6098" cy="12.0467" rx="1.39467" ry="1.40122" fill="#678DE3"/>
<ellipse cx="84.3805" cy="18.8749" rx="1.39467" ry="1.40122" fill="#FF6B6B"/>
</svg>
