<svg width="449" height="467" viewBox="0 0 449 467" fill="none" xmlns="http://www.w3.org/2000/svg">
<path d="M436.062 72.1553L391.125 60.1566C387.465 59.1793 385.613 55.0993 387.286 51.7006L397.689 30.5699C400.005 25.8644 395.601 20.6583 390.577 22.1632L349.371 34.5051L318.635 44.3249C316.611 44.9715 314.396 44.5008 312.81 43.087L299.193 30.9483C297.446 29.3912 294.954 28.9904 292.807 29.9211L250.333 48.3341C247.222 49.6831 243.611 48.1898 242.361 45.037L234.308 24.7248C232.95 21.3007 228.859 19.8939 225.682 21.7593L200.889 36.32C198.606 37.6612 197.47 40.3398 198.094 42.9138L207.244 80.6733L224.454 161.799C225.104 164.861 223.293 167.909 220.293 168.802L201.335 174.447C198.789 175.205 197.043 177.547 197.043 180.204L197.043 224.633C197.043 228.864 201.3 231.769 205.239 230.226L229.506 220.725C230.931 220.167 232.516 220.174 233.936 220.745L279.903 239.222C282.382 240.218 285.222 239.457 286.87 237.354L291.934 230.894C294.23 227.964 298.612 227.808 301.111 230.566L316.898 247.987C319.555 250.919 324.271 250.526 326.406 247.195L341.864 223.081C343.124 221.114 345.411 220.057 347.726 220.37L379.091 224.616C381.965 225.006 384.706 223.286 385.607 220.529L386.048 219.176C387.631 214.331 394.15 213.535 396.851 217.858L410.339 239.44C410.937 240.397 411.792 241.165 412.806 241.659L432.072 251.03C435.171 252.537 438.899 251.134 440.235 247.959L457.496 206.957L468.489 169.171C468.857 167.906 468.799 166.555 468.324 165.326L463.157 151.974C462.215 149.54 459.809 147.992 457.203 148.145L432.503 149.596C429.347 149.781 426.587 147.488 426.192 144.352L423.685 124.477C423.56 123.487 423.683 122.482 424.044 121.553L440.112 80.1306C441.405 76.7965 439.517 73.0779 436.062 72.1553Z" stroke="#678DE3" strokeWidth="0.858048"/>
<path d="M356.382 221.651L358.287 255.39C358.344 256.402 358.143 257.413 357.705 258.327L346.352 281.98C345.352 284.062 343.247 285.387 340.937 285.387L329.729 285.387C327.562 285.387 325.563 286.554 324.498 288.442L322.193 292.529C320.873 294.868 321.267 297.8 323.159 299.708L350.533 327.321C351.884 328.684 352.503 330.61 352.198 332.504L349.82 347.283C349.232 350.934 352.052 354.244 355.75 354.244L362.759 354.244C363.801 354.244 364.825 353.973 365.73 353.457L380.12 345.266C381.826 344.295 383.9 344.219 385.673 345.063L403.029 353.328C405.268 354.395 406.622 356.727 406.437 359.2L404.295 387.748C404.222 388.728 404.39 389.712 404.785 390.612L428.209 443.954C430.734 449.704 439.275 448.212 439.701 441.946L452.27 256.933" stroke="#678DE3" strokeWidth="0.858048"/>
<path d="M264.193 42.6807L260.153 29.2131C259.491 27.0086 260.148 24.6201 261.843 23.0633L286.956 0.000737309" stroke="#678DE3" strokeWidth="0.858048"/>
<path d="M217.814 129.463L177.202 136.752C174.9 137.165 172.567 136.204 171.224 134.29L149.898 103.889C148.086 101.306 144.584 100.565 141.882 102.193L125.383 112.132C123.909 113.02 122.124 113.233 120.483 112.717L107.353 108.591C104.85 107.804 103.147 105.484 103.147 102.861L103.147 94.1807L98.7742 47.9911C98.6574 46.7571 98.1617 45.5894 97.355 44.6483L86.5571 32.0508C85.5199 30.8407 84.0443 30.0925 82.4552 29.9708L27.2028 25.741C26.0706 25.6543 24.9863 25.2485 24.0754 24.5706L0.999909 7.39819" stroke="#678DE3" strokeWidth="0.858048"/>
</svg>
