<svg width="91" height="49" viewBox="0 0 91 49" fill="none" xmlns="http://www.w3.org/2000/svg">
<path d="M19.2086 7.30985C19.2086 3.01692 21.9592 0.285645 26.0465 0.285645C29.626 0.285645 31.8368 2.27145 32.3188 5.6261H28.7585C28.4757 4.25082 27.5824 3.44108 26.1686 3.44108C24.3499 3.44108 23.4951 4.65569 23.4951 7.08492V7.4898C23.4951 9.91903 24.3241 11.1336 26.085 11.1336C27.6017 11.1336 28.5142 10.4074 28.7585 8.60159H32.4023C32.1388 12.586 29.5489 14.2891 25.9629 14.2891C21.8821 14.2955 19.2086 11.5835 19.2086 7.30985Z" fill="#0F172A"/>
<path d="M37.7491 14.0127H33.5975V0.568359H37.7491V14.0127Z" fill="#0F172A"/>
<path d="M43.0126 0.568359L46.0459 9.37272L48.9379 0.568359H52.2989L47.479 14.0063H43.4689L38.6747 0.568359H43.0126Z" fill="#0F172A"/>
<path d="M57.3824 14.0127H53.2308V0.568359H57.3824V14.0127Z" fill="#0F172A"/>
<path d="M58.7578 7.30985C58.7578 3.01692 61.5084 0.285645 65.6021 0.285645C69.1817 0.285645 71.3924 2.27145 71.8744 5.6261H68.3141C68.0313 4.25082 67.138 3.44108 65.7242 3.44108C63.9055 3.44108 63.0507 4.65569 63.0507 7.08492V7.4898C63.0507 9.91903 63.8798 11.1336 65.6406 11.1336C67.1573 11.1336 68.0699 10.4074 68.3141 8.60159H71.9579C71.6944 12.586 69.1045 14.2891 65.525 14.2891C61.4313 14.2955 58.7578 11.5835 58.7578 7.30985Z" fill="#0F172A"/>
<path d="M16.1818 17.7725C20.147 17.7725 21.8693 19.167 21.8693 22.1875C21.8693 24.9638 19.9863 26.9046 15.8348 26.9046H14.768V31.2168H10.6165V17.7725H16.1818ZM14.768 24.5332H15.7191C17.5186 24.4496 17.9427 23.5821 17.9427 22.1875C17.9427 20.8508 17.2936 20.266 15.7191 20.266H14.768V24.5332Z" fill="#0F172A"/>
<path d="M22.5828 24.514C22.5828 20.3238 25.539 17.4897 29.8062 17.4897C33.9577 17.4897 36.869 20.2853 36.869 24.4754C36.869 28.6655 33.9128 31.4996 29.6455 31.4996C25.494 31.4996 22.5828 28.7041 22.5828 24.514ZM32.5375 24.6939V24.2697C32.5375 21.8405 31.6056 20.5488 29.7226 20.5488C27.859 20.5488 26.9078 21.8212 26.9078 24.2955V24.7196C26.9078 27.1488 27.8397 28.4406 29.7226 28.4406C31.6056 28.4406 32.5375 27.1681 32.5375 24.6939Z" fill="#0F172A"/>
<path d="M36.6888 17.7725H40.6733L42.4727 25.6643L44.6385 17.7725H48.1859L50.3709 25.645L52.1704 17.7725H55.4929L51.8105 31.2104H48.4494L46.1037 23.0358L43.8159 31.2104H40.3327L36.6888 17.7725Z" fill="#0F172A"/>
<path d="M64.3935 25.8892H60.5504V28.2799H67.1698V31.2168H56.4824V17.7725H67.0091V20.6451H60.5504V22.9523H64.3935V25.8892Z" fill="#0F172A"/>
<path d="M74.3548 17.7725C78.8663 17.7725 80.0423 19.2891 80.0423 21.352C80.0423 23.3378 78.6863 24.4882 76.6812 24.8931C78.9884 25.2979 79.8367 26.8339 80.2223 29.6101C80.3058 30.0986 80.3637 30.9083 80.3829 31.2104H76.1928C76.1928 31.1718 76.1736 30.7219 76.1543 30.3813C75.9293 27.9907 75.306 26.3905 73.5001 26.3712H72.6068V31.2104H68.5388V17.7725H74.3548ZM72.6132 24.3532L73.5451 24.2504C75.2031 24.2311 76.0964 23.3571 76.0964 22.1039C76.0964 20.9086 75.4473 20.2595 73.7507 20.2595H72.6197V24.3532H72.6132Z" fill="#0F172A"/>
<path d="M27.6466 43.7036H23.7007V48.4206H19.5492V34.9763H29.671V37.9132H23.7007V40.7666H27.6466V43.7036Z" fill="#0F172A"/>
<path d="M30.9305 42.9709V34.9763H35.0821V43.0545C35.0821 44.9182 35.7312 45.6637 37.3314 45.6637C38.9123 45.6637 39.4971 44.976 39.4971 43.2151V34.9763H42.7554V43.2151C42.7554 46.9361 40.8724 48.697 37.0872 48.697C32.73 48.7034 30.9305 46.859 30.9305 42.9709Z" fill="#0F172A"/>
<path d="M53.6998 42.4504V34.9763H56.9388V48.4142H52.9929L47.5432 39.899V48.4206H44.3042V34.9763H48.8606L53.6998 42.4504Z" fill="#0F172A"/>
<path d="M58.5585 34.9763H64.4902C68.5389 34.9763 71.5722 36.8207 71.5722 41.737C71.5722 46.4927 68.3718 48.4142 64.2845 48.4142H58.5585V34.9763ZM62.7036 45.6829H64.1239C66.3924 45.6829 67.2986 44.629 67.2986 41.7563V41.6728C67.2986 38.7551 66.4053 37.7269 64.1624 37.7269H62.7036V45.6829Z" fill="#0F172A"/>
<path d="M14.7682 43.3756H0V5.61328H14.7682V8.82655H3.21327V40.1624H14.7682V43.3756Z" fill="#0F172A"/>
<path d="M91.0002 43.3756H76.097V40.1624H87.7869V8.82655H76.097V5.61328H91.0002V43.3756Z" fill="#0F172A"/>
</svg>
